<svg width="200" height="200" viewBox="0 0 200 200" fill="none"><path d="M126.9 128.418s-1.727-8.153 7.9-8.637a47.737 47.737 0 0 0-8.268-6.472c.304-2.067.473-4.152.507-6.241a18.866 18.866 0 0 0-.829-7.209c-.319-.922-1.93-.853-1.82.254.8 8.08-.22 8.733-.368 12.482-1.148.287-4.822 3.54-5.712 4.33-1.129 3.063-4.19 11.766-2.81 12.575 1.686.987 8.018.392 11.4-1.082ZM151.04 114.392a63.818 63.818 0 0 0 3.178-12.46c.181-1.267-1.654-1.842-1.958-.53a101.593 101.593 0 0 1-3.523 12.115 14.103 14.103 0 0 0-4.491 2.049c-1.129 3.34-2.329 7.024-2.511 7.877a42.979 42.979 0 0 1-2.211 6.2s3.335-.069 2.741 6.725c-.348 3.984-3.063 11.146-7.37 11.677-3.731.46-6.771-3.086-6.771-3.086a61.327 61.327 0 0 1-9.627 4.122l.645 3.5c7.807-.53 32.865-1.75 32.865-1.75l4.86-22.939c-.023-.027-2.948-10.345-5.827-13.5ZM91.965 48.339c-.713.163-1.43.311-2.164.484-.093.021-.418-4.356.115-4.929.366-.394 1.357-.4 1.842-.507.78-.155 1.544-.386 2.28-.691 2.258-.989 1.723-4.162 0-5.3-4.125-2.717-13.56-1.005-11.884 11.907.042.323.092.622.115.945a10.486 10.486 0 0 0-4.905 1.52c-1.8 1.334-2.1 3.963 0 5.251 1.84 1.13 4.1 1.059 6.24.783.993 5.95 1.314 8.177 1.936 11.377a3.9 3.9 0 0 0 3.777 2.879c.346-.043.713-.071 1.036-.138 2.185-.453 3.13-2.856 2.74-4.837-.693-3.523-1.22-7.07-1.841-10.594.9-.184 1.82-.386 2.717-.576 4.98-1.05 2.904-8.693-2.004-7.574ZM123.656 78.509c2.3 1.774 5.321 2.371 8.061 3.11 2.81.758 5.689 1.5 8.567 2.049 1.451.369 2.925.718 4.4 1.037 1.289.279 2.858.807 3.754-.507a14.772 14.772 0 0 0 1.382-3.984c.9-3.034 2.891-10.288 3.524-12.99.5-2.142 1.6-5.319 1.267-6.61-.3-1.136-1.089-1.3-8.706-3.27-4.629-1.2-9.3-2.521-14.026-3.339a3.33 3.33 0 0 0-2.695.345c-1.747 1.293-2.262 4.075-2.878 6.011a83.516 83.516 0 0 0-3.271 13.381c-.248 1.774-.879 3.767.621 4.767Zm2.764-5.78a101.042 101.042 0 0 1 3.685-13.7c.235-.643.668-1.312.875-1.957.1.05-.676-.186 3.869.852 1.906.435 13.9 3.455 16.145 4.168.1.053.2.079.138.254a66.398 66.398 0 0 1-1.658 6.725c-.083.318-2.916 11.267-3.547 12.529-.443 0-8.855-2.069-15.154-3.985-.76-.231-4.951-1.105-4.837-2 .218-.952.38-1.915.484-2.886Z" fill="currentColor"></path><path d="M136.922 75.078a6 6 0 0 0 6.508-3.534 6.01 6.01 0 0 0 .492-2.592c-.173-3.345-3.192-6.333-6.333-6.127a6.553 6.553 0 0 0-5.735 6.2 6.001 6.001 0 0 0 5.068 6.053Zm-1.773-7.393a3.055 3.055 0 0 1 3.71-1.51c.462.157.88.422 1.218.773 1.728 1.842.484 5.25-2.119 5.274a3.073 3.073 0 0 1-2.724-1.452 3.073 3.073 0 0 1-.085-3.085ZM145.558 67.547a1.662 1.662 0 0 0 1.653-1.497 1.664 1.664 0 0 0-1.329-1.791 1.66 1.66 0 0 0-1.498.455 1.654 1.654 0 0 0-.363 1.81 1.65 1.65 0 0 0 1.537 1.023ZM38.833 84.175a2.8 2.8 0 0 1-1.981-.576c-.576-.32-1.156-.636-1.7-.99-.886-.572-1.35 1.746-1.267 2.718.14 1.612 1.312 3.827 3.018 4.191 1.391.163 2.797.157 4.187-.018.438-.019.554.7.115.783-1.078.22-2.171.358-3.27.415a6 6 0 0 0 5.044 4.353 11.99 11.99 0 0 1-8.821 2.372c4.882 2.28 10.8 4.874 20.037-.253 7.481-4.152 8.153-12.368 8.153-15.178a12.853 12.853 0 0 0 3.252-3.621c.3-.458-.276-.9-.691-.691-.514.225-1.046.41-1.589.553a9.283 9.283 0 0 0 1.451-2.856c.253-.322-.091-.872-.507-.6a26.075 26.075 0 0 1-4.1 2.027c-.355-.39-.733-.76-1.133-1.104-2.838-1.893-8.507-1.049-10.433 3.04-.118.252-.967 2.764-.529 2.856a17.305 17.305 0 0 1-6.269-2.971c-1.381-.992-3.43-4.405-5.32-4.238-1.543.136-3.356 5.688-1.083 7.186.971.639 2.3 1.8 3.455 2.026.304-.023.305.512-.019.576Z" fill="currentColor"></path><path d="M42.22 119.182a.378.378 0 0 0 .315.271.377.377 0 0 0 .375-.179c.54-1.211.71-6.446 0-8.383a.348.348 0 0 0-.626-.069.347.347 0 0 0-.042.253c.713 4.354-.407 6.372-.023 8.107ZM85.793 103.705c.693-1.625 1.29-3.293 1.912-4.951L88.7 105c-2.395.346-4.654 2.832-5.32 4.952-.739 2.348-.069 5.9 2.234 7.208a14.558 14.558 0 0 1-3.915 3.616h-.069a.532.532 0 0 0-.369.369c0 .023-.023.069-.023.092-.115.437.389.918.806.622a13.17 13.17 0 0 0 4.4-4.4.564.564 0 0 0 .308-.759.566.566 0 0 0-.193-.232 5.48 5.48 0 0 1-2.165-6.218 6.88 6.88 0 0 1 4.422-4.33c1.182 7.367 1.057 6.971 1.313 7.278-.322.023-.645.026-.99.046a.477.477 0 0 0-.44.352.473.473 0 0 0 .209.523c2.244 1.2 5.331-.985 6.311-2.971 1.28-2.595.871-6.7-1.29-8.705a.359.359 0 0 0-.507.506c1.625 1.852 1.839 5.457.83 7.647a4.616 4.616 0 0 1-1.175 1.5l-4.146-26.3c.968.667 1.935 1.312 2.9 1.935 3.386 4.744 6.595 9.621 10.134 14.233a.556.556 0 0 0 .551.259.56.56 0 0 0 .462-.397c1.621-4.281 3.186-8.571 5-12.759.2-.464-.582-.787-.829-.346-2.077 3.7-3.409 7.831-4.883 11.815-3.247-4.353-6.241-8.89-9.65-13.105a46.414 46.414 0 0 0 6.679-5.711 27.514 27.514 0 0 0 4.205 2.18.43.43 0 0 0 .484-.138c5.018-.941 5.636-1.452 10.64-.3a.467.467 0 0 0 .253-.9c-3.671-1.4-7.37-.6-11.032.391a31.625 31.625 0 0 0-4.329-2.487.617.617 0 0 0-.737.092 56.793 56.793 0 0 1-6.679 6.335c-1.129-.9-2.28-1.774-3.432-2.626-1.291-8.15-1.153-7.489-1.313-7.807 10.363-.6 21.229-9.062 22.962-19.208a25.585 25.585 0 0 0-1.98-14.394c-4-8.77-13.442-12.237-22.571-11.032-.552.073-.438 1.052.138.99 7.384-.788 15.309 1.363 19.692 7.762 5.036 7.352 5.044 17.964-.507 24.988-4.951 6.265-13.726 10.846-21.833 9.512-9.535-1.569-16.516-10.041-17.3-19.507-.879-10.663 6.007-21.6 17.3-22.2.483-.026.507-.783 0-.76-9.972.445-17.109 8.66-18.287 18.263-1.549 12.663 7.288 24.462 19.258 25.563-.166.442-.105.373.645 5.113-.184-.139-.392-.277-.576-.415a.422.422 0 0 0-.645-.253c-1.445 1.12-2.837 2.457-4.376 3.431-1.662 1.053-3.455.412-5.251.783-.553.115-.414.994.139.991 1.8-.012 3.662.506 5.274-.461a26.256 26.256 0 0 0 4.214-3.526c.48.388.98.75 1.5 1.083l2.139 13.429c-.714 1.911-1.405 3.846-2.165 5.758-2.51-4.376-4.849-8.838-7.208-13.289-.232-.437-.826-.048-.645.368a140.207 140.207 0 0 0 7.439 14.441.634.634 0 0 0 .269.184.63.63 0 0 0 .62-.106.641.641 0 0 0 .193-.263ZM130.335 124.341c2.207-1.992 3.793-1.568 5.274-1.7.53-.049.69-.827.138-.968a6.996 6.996 0 0 0-3.377.245 6.992 6.992 0 0 0-2.864 1.805 4.888 4.888 0 0 0-.921 5.366c-3.535 2-10.682 2.07-14.74 1.7-.622-4.814 1.013-9.448 2.833-13.8.155-.371-.5-.667-.668-.276-1.86 4.434-3.731 9.1-3.109 13.98a44.813 44.813 0 0 1-3.547-.553c-.461-.091-.668.6-.184.714a40.156 40.156 0 0 0 11.976 1.059c2.718-.177 5.78-.529 8.176-1.934.978-.479-1.367-3.49 1.013-5.638ZM157.719 103.014a.551.551 0 0 0-.3 1.06c10.344 3.127 23.743 12.981 29.872 21.81 3.518 5.069 4.363 8.94 2.9 15.2-1.6 6.865-7.259 12.154-12.759 16.19a38.902 38.902 0 0 1-12.068 5.689c-4.7 1.377-9.766 2.375-14.394.322-.415-.184-.807.417-.369.645 3.929 2.045 8.131 1.615 12.345.691a43.901 43.901 0 0 0 12.045-4.583 44.544 44.544 0 0 0 9.719-7.784c5.341-5.459 7-10.116 7.094-17.043.168-12.271-22.204-29.064-34.085-32.197Z" fill="#111"></path><path d="M148.529 157.69c3.425.829 9.417 2.031 12.783.921.484-.16.437-.967-.139-.944-2.892.116-2.913.921-12.459-.668-.437-.073-.646.579-.185.691ZM149.428 160.96a19.842 19.842 0 0 0 6.448 1.129c1.374.1 5.065.291 6.242-.438.369-.228.276-.99-.254-.921a18.598 18.598 0 0 1-6.011.345c-2.119-.132-4.168-.6-6.264-.737-.299-.046-.462.487-.161.622ZM158.571 155.709c.645-.018 1.779.1 2.28-.391a.44.44 0 0 0 .119-.367.442.442 0 0 0-.211-.324 5.19 5.19 0 0 0-2.188.046c-3.573.2-6.291-.184-8.867-.046-.392.021-.529.642-.092.714 2.974.331 5.968.454 8.959.368ZM170.317 143.019c-2.092 2.928-4.722 6.334-8.314 7.393-1.636-1.52-4.446-1.8-6.518-1.313-.484.114-.277.826.207.737 2.98-.543 4.627.706 5.873 1.313.146.088.283.023.415.023 3.938-.9 6.815-4.446 9.074-7.554 2.462-3.387 5.849-7.646 5-12.114-.092-.484-.824-.346-.829.115a14.385 14.385 0 0 1-.437 3.431c-1.428-2.234-4.122-3.685-6.334-5a34.342 34.342 0 0 0-10.554-4.58c-.438-.09-.621.571-.184.667 3.716.819 6.98 2.715 10.2 4.676 4.163 2.533 2.971 1.764 6.4 5.228a.38.38 0 0 0 .115.092 30.268 30.268 0 0 1-4.114 6.886ZM135.678 100.919a.542.542 0 0 0 .645-.369 46.91 46.91 0 0 0 .967-7.139c0-.369-.6-.484-.668-.093-.377 2.187-.621 4.4-1.2 6.518-1.872-.229-5.64-.468-7.416.161a.41.41 0 0 0-.288.452.417.417 0 0 0 .136.252.417.417 0 0 0 .267.102c1.553.236 3.979-.469 7.557.116ZM98.414 106.653c-.148 3.016-.229 5.575-2.165 8.384-.583.846-1.512 1.418-2.05 2.28a.46.46 0 0 0 .53.668c2.393-.793 5.61-7.36 4.353-11.4a.342.342 0 0 0-.668.068ZM97.4 74.272c-.118 1.151-.137 2.28-.161 3.431a13.894 13.894 0 0 0 .069 3.133.432.432 0 0 0 .83 0c.147-1.038.17-2.09.068-3.133-.025-1.151-.046-2.28-.16-3.431a.324.324 0 1 0-.646 0ZM132.293 145.668c2.56.746 5.711-.622 5.389-3.616a2.85 2.85 0 0 0 1.451-3.294 1.2 1.2 0 0 0-.069-.161c1.428-.921 2.211-2.372 1.013-3.938.852-1.313 1.192-3.165-.507-3.892-.369-.159-.76.161-.552.552.391.738.953 1.178.668 2.1a3.81 3.81 0 0 1-1.382 1.774 4.665 4.665 0 0 1-5.044-.023.322.322 0 0 0-.422.123.32.32 0 0 0 .1.429 5.232 5.232 0 0 0 6.287-.023c.111-.089.211-.189.3-.3 1.06 1.589-1.1 2.741-2.4 3.155a6.096 6.096 0 0 1-5.044-.714c-.345-.207-.622.3-.322.53a6.22 6.22 0 0 0 6.541.668c.552 2-1.566 2.8-3.156 2.9a4.029 4.029 0 0 1-3.638-1.474c-.3-.348-.777.132-.484.483a5.04 5.04 0 0 0 5.113 1.682 4.78 4.78 0 0 0 .668-.162c-.131 4.149-8.41 2.81-7.416-2.257a.382.382 0 0 0-.269-.459.383.383 0 0 0-.468.252c-.28.87-.137 1.152-.254 1.152a32.8 32.8 0 0 1-17.664 4.951c-3.985-.071-9.561-.943-11.861-4.7a18.579 18.579 0 0 1-2.073-6.725c-1.261-8.141.872-17.753 6.449-24.321a28.055 28.055 0 0 1 19.207-9.926.356.356 0 1 0 0-.714c-6.706-.138-13.609 3.686-18.286 8.222-8.671 8.409-10.909 23.156-6.84 32.842 1.78 4.236 6.632 5.759 10.824 6.242a32.886 32.886 0 0 0 20.383-4.722 5.316 5.316 0 0 0 3.758 3.364ZM67.461 161.905a6.593 6.593 0 0 1-5.436 3.846c-2.508.2-3.218-.669-3.639-.185-5.921 6.823-13.315 13.189-21.787 16.652-3.318 1.356-7.095 2.286-10.64 1.336-3.5-.939-6.666-3.862-8.8-6.7-2.638-3.515-3.783-7.764-4.906-11.93a.291.291 0 0 0-.14-.16.293.293 0 0 0-.212-.02.287.287 0 0 0-.2.341c1.562 6.229 3.255 11.373 7.853 15.523a18.024 18.024 0 0 0 4.791 3.362c10.716 4.574 26.705-8.573 34.615-17.434a7.57 7.57 0 0 0 9.1-4.422.328.328 0 0 0-.599-.209Z" fill="#111"></path><path d="M151.385 166.28c-7-2.446-3.754-11.193-3.754-11.193l-28.673.53c-8.407 8.245-4.169 39.383-4.169 39.383H157.6v-27.844c-.019 0-2.137.549-6.215-.876ZM51.753 61.9c-10.8-1.572-21.54 4.9-25.932 14.809-4.706 10.614.018 23.29 9.028 30.078a22.547 22.547 0 0 0 24.562 1.382v33.3a7.082 7.082 0 0 0-3.788 5.481c-.214 1.52.389 3.131-.576 4.445-.946 1.289-2.072 2.511-3.132 3.708-3.245 3.664-7.6 7.053-12.46 8.222-2.211.532-4.468.3-5.044-2.257-.088-.392-.667-.23-.6.162 1.078 6.176 10.667 1.777 15.615-2.534 1.355-1.18 2.6-2.468 3.847-3.754a15.696 15.696 0 0 0 2.97-3.639c1.179-2.478-1.36-5.342 3.236-8.728v3.8a1.918 1.918 0 0 0 2.614 1.773 1.044 1.044 0 0 0 .668-.967l.369-41.64a23.27 23.27 0 0 0 9.488-23.837A25.213 25.213 0 0 0 51.753 61.9Zm9.881 43.782c-4.279 2.707-10.275 4.7-15.915 4.1-13.3-1.423-22.743-16.375-20.083-28.444C27.871 71.209 37.5 63.118 47.884 62.9a24.147 24.147 0 0 1 22.755 15.633 22.813 22.813 0 0 1-9.005 27.153v-.004Z" fill="#111"></path><path d="M32.016 148.408c-.041-.438.595-.459.714-.092a49.04 49.04 0 0 1 1.405 5.689c.615 3.156.485 7.841 5.113 7.255 3.57-.453 8.648-3.739 13.588-10.433 1.769-2.4-3.017-5.09 6.61-10.825v-18.471c-4.008 2.442-11.435 4.817-21.465-1.059-1.1-.647-14.881 2.737-20.313 7.554-9.042 8.018-11.178 22.021-8.268 33.556.662 2.627 19.967-1.382 24.6-2.372a73.602 73.602 0 0 1-1.984-10.802Z" fill="currentColor"></path><path d="M86 129.27c-3.178-4.077-8.406-6.793-13.1-8.176-3.593-1.058-5.5-2.073-9.857-2.511l-.185 20.083c3.616.806 4.842 4.6 5.942 8.5 2.037 7.206 1.677 14.138-.575 17.987-1.846 3.153-8.913 4.33-8.913 4.33-2.626 3.777-9.213 9.326-13.566 11.861-12.138 7.068-17.895 5.665-17.895 5.665v4.768c1.774 1.635 48.319 1.036 48.319 0 0-.991.644-41.411.507-44.105-.02-.391.622-.483.69-.092.435 2.613.696 5.252.784 7.9-.046-.921 11.815-1.428 13.473-1.244C93.048 134.958 86 129.27 86 129.27Z" fill="currentColor"></path><path d="M121.652 83.922c2.508 2.233 5.658 2.282 15.615 4.79a50.416 50.416 0 0 0 8.683 1.588.437.437 0 0 0 .415-.161 7.858 7.858 0 0 0 1.957-.161l-13.864 40.373a1.468 1.468 0 0 0 2.786.921l14.418-43.114c.22-.219.427-.449.622-.69 1.22.667 5.662 2.714 9.12-1.014 4.832-5.209-.691-9-.691-9a7.368 7.368 0 0 0 6.172-6.725c.462-4.813-4.353-6.333-4.353-6.333s5.3-2.695 2.442-7.6c-2.788-4.79-6.818-2.464-6.818-2.464s1.244-7.047-4.514-7.047c-5.5 0-6.08 3.27-6.08 3.27s-3.408-1.7-4.767.6c-6.422-2.227-14.147-4.727-18.033.806a23.865 23.865 0 0 0-2.948 7.162c-.823 2.812-1.59 5.62-2.35 8.453-1.037 3.869-1.919 7.6-.714 11.561a10.381 10.381 0 0 0 2.902 4.785Zm-2.026-12.368c.461-2.063 3.132-11.889 4.076-14.625 1.5-4.352 3.317-7.208 8.038-7.208 3.57 0 7.093 1.36 10.456 2.418 2.418.761 4.79 1.635 7.209 2.372 1.946.426 3.861.98 5.734 1.658 4.053 1.845 3.344 6.657 2.626 10.249-1.143 5.718-2.551 16.337-6.472 20.774a6.655 6.655 0 0 1-4.951 2.142.609.609 0 0 0-.346-.161c-5-.392-9.837-1.99-14.717-3.063-3.825-.842-8.2-1.3-10.41-4.975a13.315 13.315 0 0 1-1.243-9.581ZM155.531 29.454a.335.335 0 0 0 .607.06.335.335 0 0 0 .038-.245 5.552 5.552 0 0 1 1.589-5.481 4.586 4.586 0 0 1 1.474-1.152c.69-.186.579.23.645.668 1.369 9.109.446 16.835-.323 26.486-.042.53.752.506.806 0 .87-8.127 1.641-16.98.53-25.15a8.492 8.492 0 0 0-.391-2.28c-.577-1.243-1.77-.41-2.511.184a6.513 6.513 0 0 0-2.464 6.91ZM151.938 29.062c.1.437.755.254.668-.184a7.344 7.344 0 0 1 .852-5.113 7.62 7.62 0 0 1 3.593-2.994c.459-.211.138-.969-.346-.806-3.734 1.256-5.585 5.381-4.767 9.097ZM147.447 21.232c.048.368.692.276.645-.093-.535-4.2-2.183-7.642-2.9-10.985-.075-.349-.6-2.885-.276-3.04.578-.276 3.556 4.919 3.869 5.481a19.12 19.12 0 0 1 2.4 5.412.44.44 0 0 0 .092.207 22.62 22.62 0 0 1-.092 1.29c-.023.53.8.53.829 0 .118-2.258.6-11.423.622-12 .021-.484-.09-1.733.691-1.428.693.271.936 1.568 1.059 2.188.739 3.7.482 4.9.507 9.926a.288.288 0 1 0 .576 0c.046-2.856.387-5.8-.023-8.636-.21-1.451-.489-4.077-2.28-4.514-.717-.175-1.176.276-1.313.967-.378 1.9.075 1.324-.461 10a43.215 43.215 0 0 0-4.376-7.762c-.462-.667-1.034-1.757-1.865-2.05-2.343-.825-.625 4.884-.392 5.689.903 3.133 2.267 6.121 2.688 9.348ZM149.151 34.8a62.723 62.723 0 0 1-4.283 11.239c-.253.507.512.97.783.46a47.379 47.379 0 0 0 4.4-11.93.475.475 0 0 0 0-.184.458.458 0 0 0-.346-.437c-2.164-.647-5.035-2.718-5.09-5.182-.08-3.622 1.795-3.479 5.366-4.123.369-.066.277-.689-.092-.645-1.565.19-3.381.122-4.744 1.014-1.24.811-1.451 2.234-1.451 3.592a5.272 5.272 0 0 0 1.819 3.847 7.802 7.802 0 0 0 3.638 2.349ZM106.659 161.72a8.71 8.71 0 0 1-2.1 1.889c-1.666.742-3.8.593-5.55.806-.414.05-.461.688 0 .691 6.507.04 6.365-.879 8.314-2.718.443-.413-.223-1.08-.664-.668ZM97.746 167.11c-.437-.053-.553.717-.115.783 4.905.733 6.2.2 10.525-2.327a.503.503 0 0 0 .163-.678.506.506 0 0 0-.669-.197c-4.081 2.383-5.311 2.97-9.904 2.419ZM108.778 168.7c-1.5.415-2.717 1.545-4.284 1.911-1.98.463-4.123.136-6.15.208a.36.36 0 0 0-.337.357.356.356 0 0 0 .338.356c2.125.368 4.296.384 6.426.047a11.534 11.534 0 0 0 4.445-2.119c.364-.306-.023-.876-.438-.76Z" fill="#111"></path><path d="M107.65 172.821a13.808 13.808 0 0 1-3.639 1.635c-1.244.183-2.67-.337-3.916-.483-.437-.052-.482.617-.092.737 2.235.687 3.655 1.194 5.643.3-.576 1.958-2.858 2.619-4.606 3.017-5.259 1.2-10.97 1.064-13.519-3.708-1.89-3.537-1.283-8.894-.622-12.9 2.516 1.332 9.72 1.106 12.9.668 1.91-.263 3.847-.209 4.744-1.313 1.023-1.258-.552-2.151-2.211-2.28a81.998 81.998 0 0 0-10.594.368 15.995 15.995 0 0 1 0-3.178c.045-.415-.573-.391-.622 0a22.92 22.92 0 0 0-.184 3.271 18.453 18.453 0 0 0-3.408.644 2.097 2.097 0 0 0-1.267 1.636c-.021.086-.546 2.678-.484 2.74-1.568-1.516-4.81-.369-4.928 4.1-.047 1.75.214 3.769 1.612 5a2.938 2.938 0 0 0 3.662.276 9.156 9.156 0 0 0 2.234 3.593 8.06 8.06 0 0 0-3.156 3.892c-.183.369.367.69.553.322.751-1.478 1.635-3.017 3.224-3.661 3.432 2.717 8.7 2.436 12.852 1.4 2.325-.578 4.813-1.842 5.02-4.468.484-.253.941-.514 1.405-.737.549-.258.019-1.172-.601-.871Zm-24.874-.737a5.167 5.167 0 0 1-1.013-3.316 6.137 6.137 0 0 1 .483-3.063c.605-1.2 2.764-2.234 3.294-.392a19.286 19.286 0 0 0 .207 7 1.945 1.945 0 0 1-1.538.574 1.95 1.95 0 0 1-1.433-.803Z" fill="#111"></path><path d="M100.763 181.619c-2.858 5.351-7.369 10.336-14 9.4a9.249 9.249 0 0 1-7.231-5.09 18.426 18.426 0 0 1-1.267-8.867c.02-.346-.507-.346-.553 0-.322 4.79.321 10.413 4.7 13.243 4.281 2.767 10.042 1.958 13.818-1.267a22.76 22.76 0 0 0 5.067-7.071c.203-.396-.335-.721-.534-.348ZM65.756 145.875a8.572 8.572 0 0 1-2 4.767c-1.3 1.33-2.971 1.958-4.538 2.879-.391.231-.137.9.3.737 3.6-1.356 6.852-4.167 6.794-8.314-.007-.299-.494-.393-.556-.069ZM60.114 158.565a11.662 11.662 0 0 0 6.84-5.182c.4-.825.663-1.706 1.06-2.51.181-.37-.368-.713-.576-.323a15.727 15.727 0 0 1-2.438 4.1 13.076 13.076 0 0 1-5.09 3.132.406.406 0 0 0 .204.783ZM67.967 156.746c-1.453 2.882-2.541 4.12-5.3 4.951-1.13.341-2.349.369-3.455.737a.375.375 0 0 0-.264.408.375.375 0 0 0 .357.329 12.166 12.166 0 0 0 6.241-1.911 9.744 9.744 0 0 0 2.948-4.169c.183-.391-.341-.713-.527-.345Z" fill="#111"></path></svg>