<svg width="200" height="200" viewBox="0 0 200 200" fill="none"><path d="M58.5 116.367a.359.359 0 0 0-.435-.272 26.217 26.217 0 0 1-10.675-.763.405.405 0 0 0-.435.164c-4.8 9.924-6.288 19.579-8.006 21.73a3.807 3.807 0 0 1-2.778 1.2c-2.887.315-5.773.708-8.6 1.035a.408.408 0 0 0-.382.381c.849 9.082 2.771 18.417 3.268 21.893a.288.288 0 0 0 .163.218c6.893-2.757 15.093-7.668 18.735-14.1 4.869-8.607 5.5-24.377 6.209-27.285.053-.218.435-.164.435.054.004.346-.014.692-.054 1.035-1.01 8.141-2.026 20.478-6.536 27.394a63.622 63.622 0 0 1-1.252 11.437.318.318 0 0 0 .272.381 174.696 174.696 0 0 0 20.2-1.362c.164 0 .218-.272.109-.326a.362.362 0 0 0 .168-.041.355.355 0 0 0 .16-.45c-8.04-20.29-5.884-25.484-10.566-42.323Zm-9.149 5.773c-.163.109-.272-.163-.163-.272 1.626-1.244 2.426-2.879 2.94-3.05 1.034 0-.675 2.273-2.774 3.322h-.003ZM139.977 82.492a.41.41 0 0 0 .321.364.408.408 0 0 0 .442-.2c6.644 0 47.762.327 51.411.163.163.218.489.218.545-.054.25-1.604.377-3.224.381-4.847.3-6.179 1.851-26.369 1.851-49.614a.26.26 0 0 0 .065-.115.26.26 0 0 0-.061-.25.267.267 0 0 0-.112-.071c-2.783-.646-34.41-2.176-54.952-.871-.381 0-.762.054-1.2.054-.163 0-.163.274 0 .272 20.184-.162 38.084-.3 54.9 1.035.324.055.656.055.98 0-.109 3.268-2.5 53.045-2.5 53.753-3.268 0-47.708 0-51.357.109-.381-6.644-1.851-48.142-1.906-51.792a.152.152 0 0 0-.009-.067.162.162 0 0 0-.22-.096.162.162 0 0 0-.089.096.152.152 0 0 0-.009.067c-.08 18.372.942 42.451 1.519 52.064ZM194.819 93.711c-1.944-.451-17.991-1.361-33.166-1.361-16.416 0-22.1.544-22.983.544-.163 0-.163.274 0 .273 20.184-.163 55.024 1.046 55.3 1.02-.109 3.267-.507 25.557-.616 28.008-.561-.74-1.221-1.4-1.961-1.961 0 0 .109-.708.109-.763a2.968 2.968 0 0 0-1.906-2.886c-.109 0-.272 0-.272.109 0 .282.623.543.98.98.457.526.691 1.21.654 1.906a3.216 3.216 0 0 1-.6 1.961.15.15 0 0 0-.057.112.154.154 0 0 0 .163.163.172.172 0 0 0 .062-.016.164.164 0 0 0 .05-.041 2.26 2.26 0 0 0 .653-1.089 12.723 12.723 0 0 1 2.015 2.559c-.163 4.085-.381 8.115-.6 12.2-.2-.206-1.654-1.528-2.669-2.669-.108-.109-.326.054-.217.163.435.6.817 1.144 1.252 1.689a20.812 20.812 0 0 0 1.634 1.579c0 .218-.653 10.961-.653 11.764-3.268 0-11.819.054-12.853.054-.256-.575-.234-.312-2.015-3.159-2.463-3.935-6.557-13.668-10.348-16.556-.163-.109-.327.164-.218.272 3.643 3.036 8.773 16.289 11.818 19.334-2.124 0-10.184-.109-12.09-.109-2.529-6.006-4.553-11.98-5.228-14.214-1.3-4.283-1.745-7.758 2.178-9.9.455.227 10.991 2.687 13.289 2.981.271-.785.489-1.586.653-2.4 1.373 2.335.406 4.6 1.416 7.243a17.047 17.047 0 0 0 2.015 3.54c.218.273.654.055.49-.272-1.978-3.3-2.2-3.875-2.342-6.971-.1-2.237-.407-3.683-2.232-5.392-1.266-1.184-2.823-2.13-3.758-3.594-2.714-4.246 1.439-9.528-1.689-14.106-.11-.162-.378 0-.272.164 2.334 3.655-1.1 9.242.872 13.615 1.024 2.273 3.715 3.618 5.01 5.283-.055.109-.6 2.233-.654 2.233-2.124-.436-10.4-2.07-12.471-2.56.054-.109-.055-.218-.164-.218a5.213 5.213 0 0 0-3.7 3.268c-.761 2.07-.348 4.526.218 6.59.938 3.419 4.252 12.154 5.392 14.813-14.826-.172-20.481.029-25 .163-.381-6.644-1.852-48.142-1.906-51.792a.152.152 0 0 0-.009-.067.162.162 0 0 0-.22-.096.158.158 0 0 0-.089.096.152.152 0 0 0-.009.067c-.027 6.7.03 13.4.218 20.1.2 6.97 1.035 28.211 1.252 31.86a.406.406 0 0 0 .321.364.41.41 0 0 0 .442-.201c6.644 0 47.762.327 51.411.164.164.217.489.217.545-.055.25-1.604.377-3.224.381-4.847.3-6.179 1.852-26.368 1.852-49.614.54.002.541-.274.322-.325ZM120.1 92.622a29.771 29.771 0 0 0-4.956-.054.137.137 0 0 0 0 .272c.8 0 17.279 1.476 17.312 1.471-.109 3.267-2.226 52.99-2.226 53.7-3.268 0-47.708 0-51.357.109-.327-5.936-1.688-42.043-1.743-45.475a.16.16 0 0 0-.043-.124.166.166 0 0 0-.186-.039.157.157 0 0 0-.055.039.159.159 0 0 0-.043.124c-.114 25.178.9 33.309 1.2 45.638a.405.405 0 0 0 .32.364.404.404 0 0 0 .443-.2c6.644 0 47.762.327 51.411.163.164.218.489.218.545-.054.25-1.604.377-3.224.381-4.847.35-7.315 1.852-26.688 1.852-49.669a.295.295 0 0 0 .073-.23.286.286 0 0 0-.128-.206c-.14-.07-12.655-.972-12.8-.982Z" fill="#111"></path><path d="M134.586 82.983c-.212-.988-13.314-35.2-15.576-40.628-1.091-2.618-1.7-4.126-4.412-10.185.109-.163-.108-.432-.326-.381-3.468.8-28.883 11.224-30.88 12.091-10.724 4.655-15.439 7.038-20.858 9.748-.164.054 0 .327.163.218 12.461-5.786 36.424-16.179 50.758-21.077.304-.094.596-.222.871-.381 4.093 10.418 19.336 50.112 19.388 50.212-3 1.307-43.795 19.1-47.063 20.679-.816-1.634-4.207-8.336-5.274-10a.147.147 0 0 0-.272.109c.667 1.866 4.139 8.822 4.956 10.511a.38.38 0 0 0 .708-.218c12.38-5.468 47.985-20.53 47.817-20.698Z" fill="#111"></path><path d="M71.138 71.981a.147.147 0 0 0-.272.109c.676 1.918 4.117 9.215 5.01 11.056.213.438.926.054.654-.381-.87-1.852-4.325-9.115-5.392-10.784ZM64.113 56.678a.147.147 0 0 0-.264.002.147.147 0 0 0-.008.107c.608 1.968 1.828 4.411 2.832 6.753.217.436.862.059.653-.381a52.696 52.696 0 0 0-3.213-6.481ZM83.447 83.963c-1.717.572-4.215 4.136-6.971.054-.11-.162-.327 0-.273.164.6 1.2 1.686 2.478 3.213 2.342a7.689 7.689 0 0 0 4.194-2.342c.109-.109 0-.273-.163-.218ZM84.645 85.542a14.323 14.323 0 0 1-3.595 2.451c-.109.054-.054.272.109.272a9.643 9.643 0 0 0 3.867-2.45.263.263 0 0 0-.381-.273ZM85.952 87.122c-.523.087-1.247 1.421-3.812 2.341-.163.059-.055.273.108.218 1.668-.357 3.776-1.755 3.867-2.4.055-.05-.054-.159-.163-.159ZM87.041 89.191c.054-.109-.054-.327-.218-.272-2.674 1.856-5.095 3.4-8.278 4.084a.14.14 0 0 0 .055.273 19.237 19.237 0 0 0 4.574-1.362c.964-.514 3.326-1.789 3.867-2.723ZM75.332 90.444c-.164.326.272.544.49.272.31-.985.403-2.026.272-3.05a29.902 29.902 0 0 0-.544-4.084c0-.164-.273-.109-.273.054.109 1.307.159 2.615.273 3.921a8.072 8.072 0 0 1-.218 2.887ZM14.989 144.959a11 11 0 0 1-2.07-1.252c-.6-.706.382-1.2 1.144-1.689.436.109 11.219-.817 11.709-.98.164-.054.218-.545 0-.6-.435-.054-11.491.926-11.654.98a4.617 4.617 0 0 0-2.778-1.96 3.211 3.211 0 0 0-1.8.326c-.436-.49-2.273-1.682-2.887-.108-.532 1.366-.155 2.994-.054 4.356.238 3.193-2.221 5.482-1.47 8.605.447 1.863 1.865 2.451 2.886 1.634a7.048 7.048 0 0 1-.163-5.5c.228-.65.477-1.257.708-1.907.877-2.468-.061-6.345 2.015-6.807 1.3-.29 2.287.653 3.158 1.525-.352.13-.683.314-.98.544a1.396 1.396 0 0 0-.49 1.743 5.381 5.381 0 0 0 2.669 1.743 6.992 6.992 0 0 0-1.852 1.851 20.45 20.45 0 0 1-1.852-1.089c-.163-.054-.272.109-.163.218a6.654 6.654 0 0 0 1.634 1.416 9.362 9.362 0 0 0-.545 1.035c-.49-.218-1.035-.436-1.525-.708a.137.137 0 1 0-.163.218 5.47 5.47 0 0 0 1.416 1.089c-.291.786-.637 1.55-1.035 2.287a6.565 6.565 0 0 1-2.5 2.124c-.164.055-.055.273.109.273 2.4-.327 3.158-2.4 3.975-4.412.399.164.823.256 1.253.273a.338.338 0 0 0 .109-.654c-.272-.109-.98-.218-1.089-.272l.49-.981c.054.055.435.109.544.164a.945.945 0 0 0 .763-.055.364.364 0 0 0 .109-.381c-.055-.109-.926-.436-1.035-.327a5.442 5.442 0 0 1 1.089-1.143c.218-.164 1.253-.654 1.2-1.035 1.416.272 10.294 1.96 10.511 1.906.109-.054.218-.218.109-.327-.276-.271-9.698-1.85-11.495-2.123ZM8.4 141.365c-.089.765.164 3-.272 4.411-.218.708-1.4 3.6-1.579 4.3a4.41 4.41 0 0 0 .708 3.812 1.165 1.165 0 0 1-1.144-.381 3.05 3.05 0 0 1-.708-1.525c-.327-2.5 1.364-4.657 1.634-7.135.181-1.671-.606-5.062.49-5.391.49-.218 1.47.381 1.743.49a1.934 1.934 0 0 0-.872 1.419ZM58.994 172.68a10.614 10.614 0 0 1-1.035 2.233c-.668.695-1.253-.218-1.8-.926.054-.49-2.179-11.056-2.4-11.491-.054-.164-.544-.109-.6.054 0 .49 2.288 11.274 2.4 11.491a4.77 4.77 0 0 0-1.633 3c.006.622.195 1.228.544 1.743-.435.49-1.409 2.477.218 2.886 1.422.357 2.943-.208 4.357-.49 3.055-.61 5.637 1.506 8.66.436 1.79-.635 2.151-2.206 1.252-3.1-.163-.163-1.8 1.708-5.446.817-.655-.16-1.306-.331-1.96-.49-2.556-.618-6.259.87-6.972-1.2-.432-1.254.381-2.342 1.144-3.322.182.332.401.643.653.926a1.357 1.357 0 0 0 1.8.272 5.526 5.526 0 0 0 1.416-2.832 7 7 0 0 0 .925.871c.11.055 1.144.763 1.144.708-.218.654-.6 1.307-.817 1.961-.054.163.11.272.218.163a6.46 6.46 0 0 0 1.2-1.8c.354.151.718.278 1.09.381a7.656 7.656 0 0 1-.545 1.58.165.165 0 0 0 .272.163c.394-.462.69-.999.871-1.579 1.923.512 3.314.6 4.793 2.941.1.166.272 0 .272-.164-.653-2.287-2.777-2.832-4.847-3.431.136-.422.173-.869.11-1.307a.328.328 0 0 0-.545-.206.327.327 0 0 0-.109.206c-.055.272-.109 1.035-.109 1.089a5.862 5.862 0 0 1-1.035-.381c.055-.054.055-.436.11-.545.147-.739-.218-.953-.49-.816-.11.054-.328.98-.219 1.034a5.35 5.35 0 0 1-1.253-.926c-.217-.217-.762-1.2-1.143-1.034.11-1.471.708-10.457.6-10.675a.26.26 0 0 0-.38-.054c-.276.486-.657 10.017-.71 11.814Zm-2.724 6.971a22.548 22.548 0 0 1 4.412-.272c.76.124 3.7.93 4.466 1.034a4.37 4.37 0 0 0 3.7-1.143 1.092 1.092 0 0 1-.218 1.143c-1.2 1.371-3.343 1.112-5.119.708a15.051 15.051 0 0 0-3.649-.6c-1.254.028-2.453.47-3.649.6-1.93.209-2.255-.353-1.525-2.178a2.138 2.138 0 0 0 1.582.708ZM58.83 70.293a35.65 35.65 0 0 0-7.9 10.13c-.109.163.164.272.218.163a40.16 40.16 0 0 1 10.786-11.981c1.578-1.155 3.382-2.2 3.867-2.56.164-.163.11-.543-.163-.436a31.965 31.965 0 0 0-6.808 4.684ZM74.624 61.906c-.879-.293-3.365.376-4.248.654-1.391.428-2.7 1.09-3.867 1.96a.175.175 0 0 0 .218.273c5.875-3.022 7-2.192 7.951-2.669.164 0 .109-.163-.054-.218ZM75.985 63.54a14.623 14.623 0 0 0-5.337 1.089.117.117 0 0 0 .055.218 10.434 10.434 0 0 0 2.069-.436c2.4-.494 2.727-.306 3.213-.653.164 0 .165-.166 0-.218ZM76.421 65.01c-.487-.162-.7.242-4.084.763-.164 0-.109.272.054.272.328-.025 3.706-.275 4.139-.708.109-.163.054-.327-.109-.327Z" fill="#111"></path><path d="M70.975 73.288c-.264-1.275-.726-2.366.381-3.7a8.328 8.328 0 0 1 4.085-2.451.14.14 0 0 0-.055-.272 6.911 6.911 0 0 0-4.52 2.451 3.9 3.9 0 0 0-.381 4.193c.163.27.546.051.49-.221ZM69.232 72.308a8.832 8.832 0 0 1-1.2-2.233c-.054-.218-.383-.108-.327.109a7.36 7.36 0 0 0 1.035 2.342c.406.743.92 1.423 1.525 2.015a.184.184 0 0 0 .272-.163c-.091-.65-.88-1.327-1.305-2.07ZM155.825 51.667c-.163-.054-.272.109-.109.218 1.144.654 2.293 1.408 3.431 2.07.376.218 13.3 7.72 13.943 8.006-.926.217-5.233 1.622-6.427 2.069-2.65.991-6.575 2.9-8.387 5.011-.054.054.054.162.109.108a18.22 18.22 0 0 1 4.738-3A90.373 90.373 0 0 1 172 62.777a13.731 13.731 0 0 0 1.58-.435c.054 0 .218.762 0 .817-4.781 1.509-14.755 4.953-16.448 9.694a3.328 3.328 0 0 0 .545 3.376c1.015 1.108 2.833 1.1 4.194.981a23.2 23.2 0 0 0 4.792-1.2 56.956 56.956 0 0 0 10.348-4.41c.027.18.027.364 0 .545a51.055 51.055 0 0 1-13.779 5.773c-6.107 1.286-9.481-2.405-13.4-5.229-2.722-1.962-5.555-3.812-8.224-5.772-.109-.109-.272.108-.163.217 2.4 1.852 4.86 3.631 7.3 5.446a73.29 73.29 0 0 0 6.155 4.575c4 2.369 7.148 2 11 .872a48.403 48.403 0 0 0 11.6-5.283c.163 0 .272-.109.272-.327 0-1.88-.343-1.682-1.579-2.178a13.891 13.891 0 0 0-2.4-.763c-.164-.054-.273.218-.109.272.925.436 1.851.926 2.777 1.362a14.71 14.71 0 0 1-1.47.762 8.96 8.96 0 0 1-1.362-1.742 6.36 6.36 0 0 1-.218-5.828c.109-.217-.218-.272-.326-.163-1.579 2.17-1.06 6.04 1.252 8.006-3.1 1.473-12.746 5.811-15.63 3.975a2.398 2.398 0 0 1-.817-3.049c1.587-4.235 11.181-7.484 14.922-8.986 1.237-.5 1.58-.348 1.58-1.144 0-.436.054-.817-.327-1.144a7.687 7.687 0 0 0-1.634-1.035c-12.892-7.382-12.387-7.07-16.606-9.095ZM169.767 46.167c-1.956 4.646-1.328 9.351 3.05 11.818a7.466 7.466 0 0 0 8.923-.972 7.483 7.483 0 0 0 1.806-2.623 12.032 12.032 0 0 0-.272-8.114c-.055-.218-.381-.218-.49-.055-4.3-.109-8.551-.109-12.853-.109a.101.101 0 0 0-.141.009.092.092 0 0 0-.023.046ZM187.848 54.173h-.054c-1.035.326-1.641-.09-2.56-.436-.274-.1-1.183-.227-.817.381a3.257 3.257 0 0 0 3.431 1.307c3.593-.771 4.134-6.4.273-7.3a3.2 3.2 0 0 0-3.105 1.035c-.248.248-.218.654.109.654.109 0 .164-.109.218-.164a2.474 2.474 0 0 1 2.233-.49 2.644 2.644 0 0 1 .272 5.013Z" fill="#111"></path><path d="M180.932 31.3c0-.109-.109-.163-.163-.054-1.413 2.824-5.372 1.716-6.7 4.3a3.377 3.377 0 0 0 .218 3.268c.754 1.245 2.242 1.534 3.1 2.4a1.547 1.547 0 0 1 .436 1.96 4.264 4.264 0 0 1-1.58 1.253c-.109.055 0 .27.109.218.97-.458 2.233-1.035 2.233-2.287 0-1.471-1.47-2.179-2.5-2.832a3.006 3.006 0 0 1-1.579-3.05c.424-2.976 5.577-2.1 6.426-5.176Z" fill="currentColor"></path><path d="M55.018 81.675c-.053-.109-.218-.054-.218.109a5.612 5.612 0 0 1-1.2 5.016c-1.451 1.972-4.433 4.15-4.847 6.426-.168.925.033 1.9-.164 2.832a12.757 12.757 0 0 1-2.505 4.52c-1.078 1.533-2.4 3.7-1.742 5.664.054.164.381.164.381-.054-.5-4.514 4.574-6.935 4.574-10.947a5.106 5.106 0 0 1 1.2-4.03c.861-1.1 1.906-2.069 2.777-3.1a11.62 11.62 0 0 1-.163 2.451c0 .44.544.427.544.109.144-.736.162-1.49.055-2.233a1.1 1.1 0 0 0-.164-.6c1.433-1.798 2.47-4.101 1.472-6.163ZM44.126 99.648c1.583-1.584 1.821-2.828 2.069-4.847.221-1.8.333-3.536 1.416-5.011 1.811-2.467 5.051-3.767 6.045-6.971.055-.109-.163-.163-.217-.054-.988 2.566-4.274 4.293-6.1 6.589a8.222 8.222 0 0 0-1.579 4.739c-.263 2.228-.268 3.5-1.961 5.228-1.321 1.348-3.457 2.947-2.941 5.119.052.219.436.164.381-.054-.163-2.124 1.525-3.377 2.887-4.738Z" fill="#111"></path><path d="M42.71 95.835c.991-2.6.939-5.963 3.05-8.114 1.269-1.294 2.964-2.182 4.574-4.03 1.61-1.848 2.2-3.448 3.159-4.085a1.823 1.823 0 0 1 1.743-.218c.163.055.275-.113.109-.218a2 2 0 0 0-2.451.382 13.755 13.755 0 0 0-1.852 2.614c-1.694 2.434-3.242 3.24-4.792 4.574-4.139 3.567-2.078 6.9-5.12 11.056-1.383 1.89-3.4 3.979-3 6.535.052.328.545.218.545-.054-.234-3.267 2.766-5.119 4.035-8.442Z" fill="#111"></path><path d="M78.6 94.093a4.923 4.923 0 0 0-3.595-1.907c-1.307-.061-2.235.978-3.159 1.743a41.364 41.364 0 0 0-5.773 5.882c-.279.35-1.485 2.451-1.851 2.451.256.123.533.197.817.218.218 0 .272.381.054.435-1.906.327-3.758-1.742-4.956-2.941-3.292-3.292-4.286-5.677-6.862-6.48a4.4 4.4 0 0 0-3.322.108c0 2.485-.075 4.455-1.525 6.318a17.047 17.047 0 0 0-3.268 6.971c-.1.545-1.093-.047-1.416-.218-.883-.469-2.341-1.8-3.431-1.144-.054 0-.054.055-.109.109-.871 1.035-2.5 5.282-2.287 5.446 5.037 3.833 11.492 4.811 17.645 4.63 1.77.048 3.539-.08 5.283-.382.656-.155.6-.435.708-1.143a38.558 38.558 0 0 1-6.426-2.56 31.166 31.166 0 0 1-5.882-4.03c-.109-.109 0-.219.109-.163 6.018 3.054 11.583 7.615 17.809 5.01 5.99-2.506 8.923-8.864 10.565-14.7.168-.6.312-1.2.49-1.851a5.12 5.12 0 0 0 .382-1.802Z" fill="currentColor"></path><path d="M56.543 86.2c.544.181.9-.349.6-.654-.365-.365-1.1-.152-.98.327a.576.576 0 0 0 .38.327ZM58.994 87.394c.093-.43.015-.88-.218-1.253a6.925 6.925 0 0 0-.817-1.361c-.055-.109-.218-.055-.218.109.43.744.656 1.59.653 2.45-.054.164-.108.436.109.491.327.054.436-.273.491-.436ZM56.379 88.973a1.239 1.239 0 0 0 1.634.382c.73-.365.57-.939.218-.763a1.394 1.394 0 0 1-1.035.272 1.411 1.411 0 0 1-.708-.708c-.035-.068-.188-.1-.206 0-.066.275-.032.565.097.817Z" fill="#111"></path><path d="M55.671 90.444a3.492 3.492 0 0 0 3.7.163c1.373-.908 1.283-2.677.871-4.084a7.412 7.412 0 0 0-1.525-3.05c-.107-.111-.272 0-.218.109.515 1.286 1.835 3.381 1.416 5.228a2.19 2.19 0 0 1-2.287 1.852 2.943 2.943 0 0 1-2.669-1.144c-.054-.055-.163 0-.108.054.23.328.506.622.82.872Z" fill="#111"></path><path d="M55.617 93.984c.254-.341.546-.652.871-.926a.21.21 0 0 0 0-.381 7.116 7.116 0 0 0-4.683-1.525.174.174 0 0 0-.164.163 5.293 5.293 0 0 0 0 1.307 6.41 6.41 0 0 1 3.976 1.362Z" fill="currentColor"></path><path d="M59.865 82.874a.19.19 0 0 0 .001-.22.192.192 0 0 0-.056-.053 1.824 1.824 0 0 0-.925 0 8.762 8.762 0 0 1-3-.435c-.163-.055-.218.109-.11.217a4.592 4.592 0 0 0 3.05.763c.386 0 .822 0 1.04-.272ZM59.429 81.948c0-.109-.163-.218-.218-.273a3.932 3.932 0 0 0-1.742-.6c-.218 0-.491-.054-.708-.054a.117.117 0 0 0-.104.162c.01.024.027.043.049.056 1.094.001 2.723 1.508 2.723.709ZM59.1 79.987a3.933 3.933 0 0 0-3.213-.871.167.167 0 0 0 .055.327 3.44 3.44 0 0 1 2.777 1.089c.218.218.436.6.708.653.223 0 .473-.528-.327-1.198ZM56.924 84.507c.218-.108.163-.381-.054-.49a1.186 1.186 0 0 0-.6.109c-.383.256-.651.6-.163.6.283-.027.559-.1.817-.219ZM79.308 126.17c6.045-.054 21.239.164 22.873.164.272 0 .218-.382 0-.382-.871-.109-1.8-.163-2.668-.217 0 0-.273-6.264-.382-7.462 2.483-.5 5.038-2.978 5.5-6.971.195-1.432.14-2.887-.163-4.3-.054-.218-.322-.163-.327.054-.058 2.421-.067 4.626-.981 6.754-1.3 3.018-4.669 4.822-7.624 3.267-.163-.109-.271.108-.163.218a3.788 3.788 0 0 0 3.485 1.035c0 1.144.055 7.08.163 7.352-1.851-.109-8.931-.163-8.931-.218a51.646 51.646 0 0 0-.272-5.5c0-.164-.218-.109-.218.054-.109.871-.109 5.011-.055 5.446 0 .055-8.605.273-10.184.436-.217.052-.217.272-.053.27ZM98.641 133.141a.115.115 0 0 0 .002.162.116.116 0 0 0 .162.002c.762-.763 1.511-1.483 2.233-2.288a45.843 45.843 0 0 0 5.391-7.788c.4-.753.763-1.525 1.144-2.287a45.094 45.094 0 0 0 2.723 14.051c.115.27.547.054.49-.218-.262-1.255-.755-2.453-1.089-3.7a46.885 46.885 0 0 1-1.58-11.056c2.9.341 14.986-.293 16.557-.436.326-.054.381-.544 0-.544-1.706 0-6.763.49-13.125.49-1.144 0-2.342 0-3.54.109a.267.267 0 0 0-.104-.078.27.27 0 0 0-.129-.017.26.26 0 0 0-.203.149 55.628 55.628 0 0 1-6.644 10.675c-.753.933-1.457 1.916-2.288 2.774ZM128.05 133.849c-.091-.915-.585-2.359-1.47-6.644a61.253 61.253 0 0 0-1.58-6.753.14.14 0 0 0-.161-.1.142.142 0 0 0-.086.055.145.145 0 0 0-.025.099 100.842 100.842 0 0 0 1.961 10.239c.178 1.122.489 2.219.926 3.268.054.163.435.109.435-.164Z" fill="#111"></path><path d="M105.993 127.1c0-.109-.163-.163-.217 0a58.911 58.911 0 0 0-.817 7.951c-1.471-.272-3-.544-4.466-.817-.109 0-.163.109-.055.164 1.743.435 8.823 2.124 10.62 2.5a.263.263 0 0 0 .327-.163c4.5-.1 13.908-1.21 15.63-1.525.326-.06.218-.6-.054-.545-1.416.055-2.833.316-4.248.49-5.627.692-8.527.82-11.328 1.307-.14-.14.463.022-5.827-1.307.042-.955.418-7.845.435-8.055ZM122.985 129.166a.186.186 0 0 0 .098-.041.191.191 0 0 0 .011-.286 16.783 16.783 0 0 0-2.777-.872 33.763 33.763 0 0 1-8.278-4.03c-.109-.054-.218.109-.109.164 2.005 1.488 8.709 5.358 11.055 5.065ZM117.539 129.111a17.012 17.012 0 0 1-2.124-.817c-.163-.054-.327.164-.163.218 1.007.512 2.066.915 3.159 1.2.36.155.751.23 1.143.218a.141.141 0 0 0 .134-.115.147.147 0 0 0-.012-.092.15.15 0 0 0-.067-.065 11.375 11.375 0 0 0-2.07-.547Z" fill="#111"></path><path d="M128.922 100.083a2.06 2.06 0 0 0-.218-2.233 2.713 2.713 0 0 0-3.213-.816 3.608 3.608 0 0 0-2.016 2.777c0-.163-.98-.436-1.089-.436a2.4 2.4 0 0 0-2.614 1.8 4.86 4.86 0 0 0-3.322.708c-.432.278-.991.766-.762 1.307.208.494.98.6 1.47.653 1.109.238 2.247.312 3.377.218.566-.042 1.13-.115 1.688-.218.491-.1.926-.327 1.416-.381.388.073.758.221 1.089.436 2.023 1.011 4.14.652 4.9-.109 0-.109-.055-.164-.164-.218-.109-.054-.163 0-.272.054a5.403 5.403 0 0 1-4.575-.326 1.662 1.662 0 0 0-1.416-.218c-1.82.543-3.745.636-5.609.272a5.822 5.822 0 0 1-.872-.218c-.326-.054-.715-.223-.435-.6.66-.886 2.507-1.123 3.594-.926a.245.245 0 0 0 .239-.045.251.251 0 0 0 .088-.227 1.871 1.871 0 0 1 3.267-.926.25.25 0 0 0 .272.064.252.252 0 0 0 .164-.227 3.215 3.215 0 0 1 1.362-2.669 2.2 2.2 0 0 1 3 .436c.37.561.507 1.245.381 1.906.048.217.215.217.27.162ZM121.079 113.154a.052.052 0 0 0-.021.004.047.047 0 0 0-.018.012.045.045 0 0 0-.011.017.052.052 0 0 0-.004.021 4.029 4.029 0 0 1-2.4.436c-2.845-.19-2.811-1.011-4.574-.381-1.95.7-2.74.039-3.54.163-.531.082-1.041.683-2.07.545-.435-.058-.817-.381-1.2-.381-.49-.055-.218.435 0 .6a2.976 2.976 0 0 0 2.941-.055 1.05 1.05 0 0 1 .436-.163c.544-.055 1.089.218 1.633.218 1.962 0 2.224-.933 3.976-.381a8.303 8.303 0 0 0 4.466.108c1.3-.313 1.475-1.249.327-1.906-2-1-2.727.2-3.159-.926a1.938 1.938 0 0 0-1.47-1.034 5.354 5.354 0 0 0-1.852.163 3.852 3.852 0 0 0-1.253-3.268c-1.693-1.394-3.8-.077-3.431.109.055.055.164 0 .218 0a2.558 2.558 0 0 1 2.941.382 3.508 3.508 0 0 1 .98 2.886c0 .218-.054.49.164.6.272.163.653-.109.925-.163a2.93 2.93 0 0 1 1.144-.164 1.72 1.72 0 0 1 1.362.817c.1.22.109.436.272.545.218.218.6.114.926.054 1.419-.26 2.668.575 2.668.926a2.261 2.261 0 0 1-.376.216Z" fill="currentColor"></path><path d="M89.546 139.731a.116.116 0 0 0 .049-.056.116.116 0 0 0-.103-.162 26.09 26.09 0 0 0-3.813 1.2c-.272.218.436 1.743.545 1.906.433.541 1.04-.057 4.629-1.851a.244.244 0 0 0-.218-.436c-.816.381-3.757 1.906-3.866 1.906-.11 0-.763-1.089-.654-1.2.055-.109 3.05-1.198 3.43-1.307ZM93.25 143.6c.108 0 1.524-.327 1.633-.381.273-.164.109-.491-.054-.708-.163-.217-1.743-1.961-1.852-2.016a.2.2 0 0 0-.272.273c.56.706 1.162 1.379 1.8 2.015 0 0-1.089.272-1.144.272 0 0-1.361-1.743-1.8-2.342-.054-.109-.218 0-.163.109a8.767 8.767 0 0 0 1.852 2.778ZM95.864 141.147c-.109.327.435.49.544.163.162-.472.218-.974.164-1.47 0-.109-.055-.272-.218-.272a23.985 23.985 0 0 0-3.649-.491c-.163 0-.163.218-.054.273 1.106.319 2.235.556 3.376.708.003.369-.052.737-.163 1.089Z" fill="#111"></path><path d="M94.448 137.879a1.976 1.976 0 0 0 .435-1.525c-.073-.924-.817-1.851-.49-2.777.055-.218 0-.272-.163-.163a.952.952 0 0 0-.327.653 5.88 5.88 0 0 1-.708 1.688 7.432 7.432 0 0 0-1.852-4.3c-.222-.213-.49-.109-.326.163a3.53 3.53 0 0 1-.436 4.03c-.054-.6-.163-1.2-.218-1.8 0-.163-.163-.218-.218.055a5.45 5.45 0 0 1-1.96 2.45 1.672 1.672 0 0 0-.327 2.07c1.169 1.594 5.314.894 6.59-.544Z" fill="currentColor"></path><path d="M104.577 54.554a12.182 12.182 0 0 0-3.267-6.318c-1.524-1.362-4.03-1.906-5.719-.435-2.245.827-2.7 2.71-2.832 5.119 0 2.832 1.056 5.837-.217 8.55a28.813 28.813 0 0 1-2.233 3.486c-2.633 3.993-1.162 5.819-1.743 9.095-.6 3.369-2.35 6.131-1.2 9.857a7.353 7.353 0 0 0 2.451 3.922c.162.11.435-.109.326-.327-.832-1.19-1.45-1.479-2.124-3.54-1.166-3.571.261-6.068.926-9.041.868-3.879-.593-5.888 1.362-9.095 1.48-2.429 3.376-3.888 3.376-7.515 0-2.824-1.76-8.79 1.961-10.348 2.241-1.29 5.549-.272 7.134 3.431.422.986.654 1.961.981 2.941a6.499 6.499 0 0 0-1.2.436 3.866 3.866 0 0 1-3.213-.6 6.247 6.247 0 0 1-2.342-3.758c0-.109-.217-.109-.217 0a5.578 5.578 0 0 0 2.4 4.248 4.404 4.404 0 0 0 3.376.6.29.29 0 0 0 .077.102.295.295 0 0 0 .243.06.286.286 0 0 0 .116-.053c1.053-.9 2.114.082 1.852 1.525-.164.6-.817 1.361-1.471.871a.378.378 0 0 0-.6.218 4.018 4.018 0 0 1-.327 1.852A3.359 3.359 0 0 1 97.5 60.98a6.092 6.092 0 0 1-1.852-3.267c-.79-2.5-.793-5.129 1.144-6.862.108-.055-.055-.218-.109-.109-2.219 1.868-2.4 4.3-1.634 7.08a6.687 6.687 0 0 0 2.015 3.7 3.985 3.985 0 0 0 4.738.109c.054.381.653 2.5.653 2.5.177-.13.341-.276.491-.436a20.041 20.041 0 0 0-.926-2.287 3.99 3.99 0 0 0 1.307-2.124c.212 1.066.541 2.106.98 3.1.164-.163.272-.327.436-.49a18.66 18.66 0 0 1-1.2-3.322c2.478.237 2.639-3.278 1.034-4.018Z" fill="#111"></path><path d="M96.9 56.569c.566 0 .766-.375.6-.708a1.4 1.4 0 0 0-.872-.436c-.31 0-.629.189-.544.708.053.34.542.436.816.436ZM97.606 54.5c-.273-.546-1.1-.558-1.688-.381a.154.154 0 0 0 0 .272c.38.07.748.198 1.09.382.217.053.762.162.598-.273ZM98.641 59.074c.273.164.708.218.817-.109.109-.218-.272-.272-.436-.327-.326-.163-.331-.488-.435-.816a14.994 14.994 0 0 1-.381-1.634c0-.109-.164-.055-.218 0a6.253 6.253 0 0 0 .163 2.069c.084.313.253.596.49.817ZM100.547 59.728c-.18.11-.388.167-.6.163-.109 0-.653-.054-.381.218a1.244 1.244 0 0 0 1.961-.654c.072-.191.091-.399.054-.6a.343.343 0 0 0-.327-.272c-.591-.098-.308.879-.707 1.145ZM97.715 49.108a5.238 5.238 0 0 1 1.907 1.2c.558 0-.345-1.362-1.852-1.362-.164-.002-.164.162-.055.162ZM98.478 48.509c.163.054.381.218.544.218.327 0-.061-.545-1.2-.545a.117.117 0 0 0-.109.109c.002.188.203.03.765.218ZM95.7 49.6c-.314.285-.556.64-.708 1.035a.2.2 0 0 0 .055.163c.054.055.109 0 .163-.054.055-.109.164-.218.218-.327.248-.299.542-.556.871-.763.216-.166 0-.381-.217-.272-.132.063-.26.136-.382.218ZM94.938 49.162a.153.153 0 0 0 0 .218.153.153 0 0 0 .218 0c.115-.122.243-.232.381-.327.109-.054.272-.054.327-.163.054-.055 0-.109-.055-.163-.274 0-.369-.067-.871.435ZM97.879 50.088c-.055-.054-.163.054-.109.109 1.27 1.315 2.455 4.253 4.629 4.139a.247.247 0 0 0 .229-.223.247.247 0 0 0-.175-.267c-2.593-.546-2.698-2.257-4.574-3.758Z" fill="#111"></path><path d="M101.419 64.847c-.109-.109-.109-.49-.273-.49-.381 0-.163.762-.108.926.055.164.925 1.742 1.034 1.634a24.81 24.81 0 0 0-7.788 8.983A21.778 21.778 0 0 0 92.6 88.374c.432 2.506 2.013 7.784 2.233 7.679 1.188-.566 36.6-15.957 36.6-16.066-.381-1.089-5.283-14.486-5.283-14.541-.186-.435-.855-.743-2.178-1.688a16.627 16.627 0 0 0-17.265.272c-.435-1.579-.217-2.941-.762-2.723-.218.055-.323.384-.436.545-1.058 1.497-3.6 3.485-4.09 2.995Z" fill="currentColor"></path><path d="M95.646 61.47c-.055-.108-.218-.108-.218.055.218 1.852-.938 3.422-1.906 4.792-1.134 1.607-1.837 2.65-1.961 4.63-.121 1.937.453 3.3-.163 5.391-.666 2.264-2.423 5.225.381 8.5a2.984 2.984 0 0 1 0-.98 5.375 5.375 0 0 1-.926-2.832c-.087-1.687.807-3.162 1.253-4.738.479-1.692.136-3.431.163-5.174.03-1.92.629-2.951 1.852-4.684.968-1.374 1.961-3.108 1.525-4.96ZM94.883 70.4c-.1.655-.109 1.688.436 2.124a.262.262 0 0 0 .381-.218c0-.381-.218-.762-.218-1.144 0-3.305 3.752-5.032 2.941-7.733-.054-.109-.217-.054-.163.054.4 2.267-2.92 3.873-3.377 6.917ZM170.421 108.743c-.708-.461-2.124.327-2.124.98 0 .926 2.069.218 2.342-.218a.598.598 0 0 0-.218-.762ZM166.554 108.906a.115.115 0 0 0-.026-.069.118.118 0 0 0-.137-.034.119.119 0 0 0-.055.049c-.483 2.3-1.034 3.595-.6 4.356.164.327.545.654.926.491.109-.055.164-.218.055-.273-.218-.272-.491-.381-.545-.762-.118-.83.256-1.732.382-3.758ZM169.713 114.951c.163-.109.436-.272.436-.49a.295.295 0 0 0-.021-.144.303.303 0 0 0-.361-.183c-.235 0-.751.441-1.307.6a1.517 1.517 0 0 1-1.361-.163c-.164-.163-.436.054-.273.218.368 1.102 2.024.902 2.887.162ZM170.8 106.673c-.239-.558-2.512-.494-3.213.708-.109.164.056.385.218.327a6.247 6.247 0 0 1 2.178-.6c.217-.054 1.037.001.817-.435ZM160.4 109.287c.109.926.187 1.848.327 2.778.153.624.226 1.264.218 1.906-.055.218-.109.381 0 .545.14.279.823.095.653-.926a35.19 35.19 0 0 0-1.035-4.357c-.044-.146-.163-.109-.163.054ZM159.311 115.986a1.008 1.008 0 0 1-.98-.762.199.199 0 0 0-.086-.095.197.197 0 0 0-.24.034.202.202 0 0 0-.056.115 1.444 1.444 0 0 0 1.144 1.362c.53.132 1.684.014 1.852-.491.109-.163.163-.435-.109-.381h-.218c-.418.156-.861.23-1.307.218ZM156.316 108.307c-.185.184.081.422.272.327a3.794 3.794 0 0 1 1.089-.436c.272-.054 1.028.051 1.2-.218.314-.499-1.555-.88-2.561.327ZM162.579 107.49c-.483-.483-1.882.262-1.2.49.423.111.873.053 1.253-.163.11-.109.055-.217-.053-.327Z" fill="#111"></path><path d="M160.781 101.663c-.267.9-.775 1.71-1.47 2.342-1.433 1.228-3.776 1.52-4.738 3.049a2.921 2.921 0 0 0-.381 2.4c.445 1.262.702 2.584.762 3.921a2.476 2.476 0 0 0-3 .6 1.675 1.675 0 0 0-.164 1.579c1.333 1.925 4.244.788 3.213.273a.933.933 0 0 0-.381.054c-.6.109-2.167-.108-2.069-1.089.124-1.251 2.45-1.089 2.45-1.253v.109c0 .109.109.164.218.109.585-.39-.143-3.549-.163-3.649-.49-2.464.041-3.154 2.233-4.139 1.525-.685 2.852-1.371 3.594-2.777a1.97 1.97 0 0 0 .273-1.471c-.158-.113-.322-.167-.377-.058Z" fill="#111"></path><path d="M162.96 102.153a.47.47 0 0 0-.164.327 4.335 4.335 0 0 1-3.812 2.995c-.163 0-.109.218.055.218a5.488 5.488 0 0 0 1.633-.055 4.056 4.056 0 0 0 2.778-3c0-.158-.109-.757-.49-.485ZM164.1 104.5a3.684 3.684 0 0 1-2.287 1.361c-.163 0-.109.273.055.273a2.923 2.923 0 0 0 1.524-.273 3.652 3.652 0 0 0 1.961-3.376.947.947 0 0 0-.272-.763.333.333 0 0 0-.327.055c-.224.449.307 1.641-.654 2.723ZM155.88 103.9c-1.574.506-3.562 1.3-4.194 3a5.815 5.815 0 0 0 .817 5.065.182.182 0 0 0 .295-.001.178.178 0 0 0 .032-.108c-.163-.817-.545-1.579-.762-2.342a3.31 3.31 0 0 1 1.633-4.03 29.74 29.74 0 0 1 2.233-1.253c.218-.118.11-.388-.054-.331ZM153.81 122.957c.871-1.306.9-4.261.817-5.827a.192.192 0 0 0-.33-.144.192.192 0 0 0-.051.144c-.054.98-.218 1.96-.327 2.886a16.183 16.183 0 0 0-.49 2.832c-.054.218.271.327.381.109ZM156.479 122.086c0 .217.108.54.381.49.326-.06.327-.49.381-.763.18-.734.308-1.481.382-2.233 0-.109-.218-.217-.273-.109a6.728 6.728 0 0 0-.871 2.615ZM165.084 106.4a36.076 36.076 0 0 0-.981 4.193c-.054-1.361-.217-2.723-.381-4.084 0-.109-.22-.109-.218.054.106 8.849.123 9.124-.272 9.967-.866 1.847-4.271 1.489-5.882 1.851a.283.283 0 0 0 0 .545c1.205.125 2.423.033 3.595-.272 2.528-.464 3.267-1.738 3.267-4.194.687 2.631 2.98 3.655 4.9 2.886.228-.086.447-.195.653-.326a22.565 22.565 0 0 1 1.362 4.629 7.846 7.846 0 0 1-1.362.49c-1.361.381-2.832.6-4.193 1.035-.272.109-.218.544.054.49a24.561 24.561 0 0 0 5.882-1.525.356.356 0 0 0 .218-.272 11.669 11.669 0 0 0-1.688-5.011.194.194 0 0 0-.164-.326c-.43.082-.85.209-1.252.381a2.9 2.9 0 0 1-3.431-1.8c-.981-1.907-.308-4.245 0-6.263.116-.762.163-1.58.272-2.342 2.218 0 4.777-1 5.119-1.689a.184.184 0 0 0-.163-.272c-.631 0-.48.313-2.614 1.089-.917.288-1.867.462-2.827.517-.332.04-.602.304.106.249ZM166.282 104.113c-.218.109-.054.44.163.382a5.489 5.489 0 0 1 2.015-.273.729.729 0 0 0 .49-.109c.437-.436-.762-.794-2.668 0ZM168.95 101.281a3.897 3.897 0 0 0-2.965 1.508.114.114 0 0 0 .025.126.114.114 0 0 0 .163 0 4.537 4.537 0 0 1 2.669-1.034c1.157 0 1.583.78 2.124 1.089.576.384.447-1.415-2.016-1.689ZM176.738 106.455a4.986 4.986 0 0 0-1.688-3.158 3.744 3.744 0 0 0-3-.763.14.14 0 0 0-.082.061c-.018.03-.025.066-.018.1a.142.142 0 0 0 .055.086c.029.02.064.029.099.025a3.2 3.2 0 0 1 2.778 1.144c1.555 1.671 1.3 4.491 1.089 6.753a6.206 6.206 0 0 0 .381 3.431c.87 1.433 2.04 2.66 3.431 3.595 6.824 5.48 1.595 9.444 7.189 13.016.166.106.327-.163.163-.272a7.107 7.107 0 0 1-2.5-5.882c0-6.119-6.081-7.685-7.57-10.783-.958-1.996.335-3.726-.327-7.353ZM146.894 122.848a12.378 12.378 0 0 0-6.59 4.684c-.163.326.272.653.49.381 1.6-1.6 3.314-4.3 8.387-4.9a26.31 26.31 0 0 1 3.1-.163c.218 0 .218-.272 0-.327a15.146 15.146 0 0 0-5.387.325Z" fill="#111"></path><path d="M152.667 122.957c-.055-.163-.273-.163-.273 0a1.9 1.9 0 0 0 .763 1.906c2.006 1.482 5.713.233 5.827-1.252 0-.164-.218-.273-.381-.218a9.8 9.8 0 0 1-1.307 1.034 4.628 4.628 0 0 1-3.595.055 2.35 2.35 0 0 1-1.034-1.525ZM169.822 120.179c.218-.108.163-.435-.055-.544a3.349 3.349 0 0 0-1.252.109c-.44.066-.877.157-1.307.272-2.218.555-5.482 1.3-7.516 2.614a.147.147 0 0 0 .109.273c1.678-.524 3.269-1.137 4.956-1.58 4.843-1.27 4.543-.793 5.065-1.144ZM180.932 123.937c-1.767-3.491-6.4-5.206-7.3-8.931-.054-.164-.272-.109-.218.054.672 3.945 4.94 5.818 6.7 8.768.875 1.468.895 3.109 1.144 4.738a10.008 10.008 0 0 0 2.287 5.229c.163.163.436-.055.327-.218-2.903-5.077-1.59-6.971-2.94-9.64ZM185.343 124.591c1.307.871 2.693 1.733 3.268 3.267.875 2.334.163 3.6.163 4.956.004.036.018.07.041.098a.191.191 0 0 0 .286.011 4.406 4.406 0 0 0 .6-2.668 6.336 6.336 0 0 0-.544-2.669 6.44 6.44 0 0 0-3.649-3.213c-.165-.109-.328.109-.165.218ZM181.8 117.347c-.054.055-.383.54-.054.436a5.194 5.194 0 0 1 3.322-.218.331.331 0 0 0 .367-.118.341.341 0 0 0 .016-.385.329.329 0 0 0-.22-.15 3.396 3.396 0 0 0-3.431.435ZM178.753 137.389a22.683 22.683 0 0 1-4.52.055c-.163 0-.163.217-.054.272 1.525.413 3.116.524 4.683.327a3.46 3.46 0 0 0 1.471-.382c.109-.108.109-.326-.055-.326a3.6 3.6 0 0 0-1.525.054Z" fill="#111"></path><path d="M186.378 116.313c-1.43-1.161-2.771-.086-4.085-.49-.217-.055-.326.272-.163.326 1.092.546 2.555.013 3.486.491 1.04.533 1.089 1.742.925 2.777 0 .39.594.475.763-.49a2.69 2.69 0 0 0-.926-2.614ZM187.848 119.907c-.108.164.109.272.218.164.623-.623 1.086-1.547.654-2.179a.247.247 0 0 0-.101-.094.242.242 0 0 0-.261.033.247.247 0 0 0-.074.116c-.168.753-.093 1.618-.436 1.96ZM189.156 120.887a2.787 2.787 0 0 0 .816-2.341.26.26 0 0 0-.098-.119.263.263 0 0 0-.294 0 .26.26 0 0 0-.098.119 4.637 4.637 0 0 1-.653 2.069c-.109.218.163.436.327.272ZM154.192 51.885c-3.015.287-9.882 2.965-12.2 5.283a5.035 5.035 0 0 0-1.525 2.778c0 .163.162.217.218.054a7.93 7.93 0 0 1 3.812-3.976 33.73 33.73 0 0 1 9.749-3.649.25.25 0 0 0-.054-.49Z" fill="#111"></path><path d="M148.582 57.767a.276.276 0 0 0-.143.245.282.282 0 0 0 .143.245c1.525.654 4.194 3.54 4.52 3.322a44.147 44.147 0 0 1 7.788-3.812.338.338 0 0 0 .245-.327.341.341 0 0 0-.245-.326c-.327-.109-3.431-2.07-4.139-2.506a46.056 46.056 0 0 0-8.169 3.159Z" fill="currentColor"></path><path d="M84.318 105.039c-2.873 2.791-1.956 7.226 0 10.729 2.564 4.593 6.71 4.848 9.2 2.233 3.036-3.183 3.294-10.5-.218-15.031-.167-.216-.436.054-.327.272a25.647 25.647 0 0 1 1.471 3.159c1.364 4.2.677 7.974-.708 10.13a4.523 4.523 0 0 1-5.61 1.96c-2.179-1.033-3.418-3.436-4.193-5.609-.857-2.4-1.09-5.446.653-7.57.059-.164-.105-.382-.268-.273ZM158.167 111.411c.331 0 .599-.317.599-.708 0-.391-.268-.708-.599-.708-.331 0-.599.317-.599.708 0 .391.268.708.599.708ZM162.197 110.867c.331 0 .599-.317.599-.708 0-.391-.268-.708-.599-.708-.331 0-.599.317-.599.708 0 .391.268.708.599.708Z" fill="#111"></path></svg>