<svg width="200" height="200" viewBox="0 0 200 200" fill="none"><path fillRule="evenodd" clipRule="evenodd" d="M118.289 115.778a27.403 27.403 0 0 0-10.6-3.957.788.788 0 0 0-.733.335c-.807 1.137-2.582 3.743-3.769 5.062-1.365-1.459-2.629-3.077-4.135-4.583a.81.81 0 0 0-.706-.225 28.077 28.077 0 0 0-10.312 3.475.487.487 0 0 0 .073.899c.123.04.257.029.372-.03a42.204 42.204 0 0 1 6.269-1.98c-.069 1.146-.371 5-.459 9.256a.811.811 0 0 0 .414.703.806.806 0 0 0 .816-.018c2.154-1.345 4.613-2.916 6.678-4.418-.744 4.2-.457 17.7-.344 21.94a.537.537 0 1 0 1.072.039c.218-1.561.34-3.135.367-4.711 0-.1.2-16.8.169-17.747 1.876 1.492 4.712 3.956 6.5 5.554a.789.789 0 0 0 .805.145.796.796 0 0 0 .504-.645c.079-.68.183-1.358.288-2.033 1.462-8.676 1.232-8.107 1.413-8.05a23.721 23.721 0 0 1 4.763 1.887.535.535 0 0 0 .733-.165.515.515 0 0 0 .067-.404.534.534 0 0 0-.245-.329Zm-22.376 6.789c0-2.886.076-2.791-.184-8.02.1 0 .769-.2 2.461-.475 1.3 1.346 2.563 2.95 3.852 4.313-1.83 1.367-4.242 2.98-6.129 4.182Zm14 .622c-1.7-1.509-3.757-3.316-5.586-4.78a60.967 60.967 0 0 0 3.673-4.923c1.309.242 2.601.566 3.869.971a79.955 79.955 0 0 0-1.955 8.732h-.001ZM102.089 85.431c-.1.992.018 5.075.105 6.145.14.9.188 2.183.837 2.172.513-.014.571-.472.733-1.942.036-.634-.091-6.019-.157-6.655-.2-1.508-.326-1.65-.655-1.67-.588-.027-.833 1.659-.863 1.95ZM100.859 97.126c1.059 3.176 6.176 2.193 6.176-1.429a.535.535 0 0 0-.427-.6.534.534 0 0 0-.619.4c-.25.42-.539.814-.864 1.178a2.001 2.001 0 0 1-2.2.6 9.25 9.25 0 0 1-1.255-.686.467.467 0 0 0-.655-.138.5.5 0 0 0-.156.675Z" fill="#111"></path><path fillRule="evenodd" clipRule="evenodd" d="M112.689 86.316c-2.471-4.363-8.386-3.9-9.815.712-.093.3.029.255-.261-.257-2.477-4.371-8.391-3.9-9.814.711a5.594 5.594 0 0 0 1.57 5.656 5.2 5.2 0 0 0 8.678-2.5 5.307 5.307 0 0 0 2.909 3.104 5.303 5.303 0 0 0 6.013-1.31 5.3 5.3 0 0 0 .72-6.113v-.003Zm-11.673 4.958c-2.23 3.623-7.816.966-6.7-3.37.104-.413.263-.81.471-1.181 1.112-2.11 2.816-2.391 4.79-1.1a5.735 5.735 0 0 1 1.648 1.9 3.748 3.748 0 0 1-.209 3.751Zm10.076-.454c-2.23 3.623-7.816.966-6.7-3.37.104-.413.263-.81.471-1.181 1.026-1.947 2.671-2.487 4.79-1.1a5.74 5.74 0 0 1 1.648 1.9 3.76 3.76 0 0 1-.209 3.751Z" fill="currentColor"></path><path d="M98.173 90.615c.578 0 1.047-.703 1.047-1.57 0-.867-.469-1.57-1.047-1.57s-1.047.703-1.047 1.57c0 .867.469 1.57 1.047 1.57ZM107.964 90.552c.578 0 1.047-.703 1.047-1.57 0-.867-.469-1.57-1.047-1.57s-1.047.703-1.047 1.57c0 .867.469 1.57 1.047 1.57Z" fill="#111"></path><path fillRule="evenodd" clipRule="evenodd" d="M114.834 64.042a9.65 9.65 0 0 0-2.407-6.888c-2.25-2.478-6.559-3.636-9.814-3.335-4.055.378-7.862 2.235-11.882 1.665A.819.819 0 0 0 90 56.831a8.114 8.114 0 0 0 2.513 1.89 22.33 22.33 0 0 1-5.784 2.212.818.818 0 0 0-.366 1.464 7.512 7.512 0 0 0 3.166 1.33c-2.372 2.77-3.151 6.227-3.638 9.8-.322 2.75-.287 6.176-2.93 7.081a.81.81 0 0 0 .026 1.544 8.012 8.012 0 0 0 2.3.382c-.098.68-.3 1.34-.6 1.958a.8.8 0 0 0 .994 1.133 6.215 6.215 0 0 0 1.178-.591 13.698 13.698 0 0 0 2.264 5.029A3.6 3.6 0 0 0 91.045 95c.69.299 1.423.488 2.172.562.145 4.806 1.5 9.574 6.1 10.961a50.96 50.96 0 0 0 .288 5.87.52.52 0 0 0 .168.369.53.53 0 0 0 .749-.031.534.534 0 0 0 .132-.383l.235-6.419a.757.757 0 0 0-.6-.788c-4.4-1-5.443-5.8-5.443-10.311a.8.8 0 0 0-.733-.809c-1.337-.121-2.692-.265-3.455-1.345-1.037-1.505.322-3.233 1.963-3.541.308-.062.916-.6.916-.885a.5.5 0 0 0-.2-.4c1.072-5.928 6.6-11.043 11.527-14.53a39.375 39.375 0 0 0 5.156 9.727 18.128 18.128 0 0 0 2.774 3 .558.558 0 0 0 .5.124 5.47 5.47 0 0 1 2.983.769c1.568 1 .775 3.191-.811 4.122a5.728 5.728 0 0 1-2.8.555.808.808 0 0 0-.812.8c-.142 5.024-1.47 11.276-6.28 12.651a.773.773 0 0 0-.55.822c.17 1.312.255 3 .654 6.134a.502.502 0 0 0 .524.448.485.485 0 0 0 .445-.521c-.027-1.442.026-2.881 0-4.324 0-.418-.027-.834-.027-1.251 5-1.8 6.589-7.866 6.831-13.153a6.156 6.156 0 0 0 2.8-.759c2.309-1.324 3.32-4.539 1.466-6.213-.907-.841-.685.211.157-2.195.021-.112.055-.222.1-.327a.626.626 0 0 0 1.177.185c3.249-6.103 1.455-17.043-4.317-19.872ZM79.635 145.508c.07-.213.278-.771.314-.872.4-1.493.628-2.255 1.936-3.106.22-.177.457-.332.707-.463a.533.533 0 0 0 .424-.612.53.53 0 0 0-.607-.432 3.108 3.108 0 0 0-1.178.12c-1.776.58-3.35 3.561-2.565 5.388a.485.485 0 0 0 .969-.023ZM84.4 145.966c.845-1.64.461-2.786 2.12-4.263.196-.218.415-.414.654-.584a.538.538 0 0 0 .366-.662.553.553 0 0 0-.68-.353 3.084 3.084 0 0 0-2.539 1.643 5.99 5.99 0 0 0-1.047 3.274c.025.304.077.605.157.9a.51.51 0 0 0 .472.51.475.475 0 0 0 .497-.465ZM89.71 146.515c.105-.3.167-.352.341-.826.129-.627.33-1.237.6-1.817a5.18 5.18 0 0 1 1.074-1.473c.162-.22.337-.431.523-.631a.534.534 0 0 0 .235-.714.562.562 0 0 0-.732-.231c-.36.074-.705.207-1.021.393-1.364.849-2.656 3.8-1.989 5.281a.471.471 0 0 0 .471.495.488.488 0 0 0 .498-.477ZM100.152 167.062c-.177 1.861-.2 5.144-.183 7.016.008 1.059 0 2.81.707 2.843.554.02.65-.569.837-2.152.1-.855.175-5.775.184-6.977.006-.924.014-2.759-.629-2.811-.54-.043-.644.637-.916 2.081Z" fill="#111"></path><path fillRule="evenodd" clipRule="evenodd" d="M147.077 141.7c-3.559-9.863-11.961-18.26-21.146-23.221a42.743 42.743 0 0 0-6.988-3.431.803.803 0 0 0-.879.273.802.802 0 0 0-.142.292 124.56 124.56 0 0 0-3.193 22.24 30.485 30.485 0 0 1-.261 4.323c-7.351.013-14.841-.076-22.115.911a.84.84 0 0 0-.549.337c-1.5 2.192-1.415 5.714-3.35 5.46-.857-.114-1.7-1.316-1.858-2.07a.822.822 0 0 0-1.57-.029c-.11.327-.25.644-.419.945a1.458 1.458 0 0 1-1.5.871 1.457 1.457 0 0 1-1.274-1.178.827.827 0 0 0-.663-.565.835.835 0 0 0-.802.338c-1 1.456-2.642.711-2.8-.992-.02-.2-.03-.4-.031-.6-.84.291-2.943.913-4.287 1.192-.6.125-.935-.5-.366-.9a12.538 12.538 0 0 1 4.758-1.489 7.37 7.37 0 0 1 1.634-3.422c-.283-.216-.3-1.327-.3-1.43-.066-.525.374-4.99.446-5.321.015-.111.377-1.572.889-1.526.548.045.628 1.485.628 1.654a36.334 36.334 0 0 1-.548 5.511c1.3-1.072 2.9-1.687 3.872-.306a.794.794 0 0 0 .57.339.804.804 0 0 0 .63-.208 4.861 4.861 0 0 1 1.334-.832 2.048 2.048 0 0 1 2.565.385.813.813 0 0 0 1.387-.715c-1.2-5.963-3.3-16.729-3.454-22.81a.799.799 0 0 0-.942-.769c-5.975.982-11.208 4.814-15.494 9.055-9 8.873-16.043 20.215-12.143 32.3 2.646 8.333 9.027 12.146 16.671 16.108 0 2.161 0 3-.157 6.249a.787.787 0 0 0 .89.832c4.93-.512 9.883-.775 14.839-.788a.77.77 0 0 0 .716-.509.77.77 0 0 0 .043-.307c-.119-2.669 0-5.224-.072-7.99a44.701 44.701 0 0 1-5.725 1.919c-2.06.7-4.25.932-6.412.68a.483.483 0 0 1-.354-.814.485.485 0 0 1 .328-.157c.314-.065.6-.146.89-.215 2.158-.485 2.562-.4 5.1-1.075.1-.027 9.185-2.781 10.822-3.518a46.244 46.244 0 0 0 4.632-2.454 66.895 66.895 0 0 0 11.619 2.779 70.149 70.149 0 0 0-.392 9.448.578.578 0 0 0 .183.447c.3.324.123.083 7.066-.031 8.3-.139 8.924.1 11.018.081 1.275-.016 1.607-.11 1.858-.11a.54.54 0 0 0 .576-.487c.351-4.6.312-6.62.366-9.84.548-.112 1.09-.253 1.623-.421 11.842-3.795 15.721-14.73 12.233-24.439Zm-43.235 19.979a.488.488 0 0 1-.676-.067.49.49 0 0 1 .048-.677c3.05-2.988 11.622-12.521 17.169-16.034a31.548 31.548 0 0 1 2.893-1.528c-3.217-.337-1.967.015-7.395-.477a.498.498 0 0 1-.5-.482.496.496 0 0 1 .146-.35.488.488 0 0 1 .354-.139 27.213 27.213 0 0 1 4.737-.33c2.034.067 4.062.262 6.072.586.732.042 1.491.032 2.224.05a47.57 47.57 0 0 1-.157-4.776.54.54 0 0 1 1.073-.1c.157.942.34 1.874.471 2.821.105.937.183 1.882.288 2.822a.807.807 0 0 1-.223.646.795.795 0 0 1-.641.238 41.705 41.705 0 0 1-4.47-.219c-10.755 6.176-13.414 12.211-21.413 18.011v.005Zm13.217 6.812c-.986-.217-1.623-.292-1.571-.825.1-.51.461-.457 2.2-.473 1.883-.013 4.525.225 7.406.081 1.089-.052 1.314-.1 5.025-.448.921-.092 1.445-.25 1.6.3.308 1.692-9.841 2.385-14.66 1.36v.005Z" fill="currentColor"></path><path fillRule="evenodd" clipRule="evenodd" d="M158.702 118.116a.516.516 0 0 1 .13-.479.53.53 0 0 1 .47-.16c2.968.4 4.712 2.926 4.554 5.975a5.56 5.56 0 0 1-6.434 5.416 5.55 5.55 0 0 1-2.831-1.349c-2.74-2.853-1.013-8.795 3.586-9.6a.502.502 0 0 1 .525.197Zm.078.175a.487.487 0 0 1-.366.57c-3.971 1.318-5.392 8.553.027 8.419 4.883-.12 5.071-7.655.68-8.761a.443.443 0 0 1-.341-.228Z" fill="#111"></path><path fillRule="evenodd" clipRule="evenodd" d="M191.917 135.043a.528.528 0 0 1 .553.396.529.529 0 0 1-.291.614c-5.45 2.523-11.527 5.784-20.23 8.6a.797.797 0 0 1-1.005-.478.795.795 0 0 1-.041-.404c1.155-8.411 2.349-17.481 4.58-25.726a.814.814 0 0 1 .574-.578.806.806 0 0 1 .786.217c2.757 2.781 7.013 7.514 8.375 9.073 4.543 5.205 4.641 5.821 6.699 8.286Zm-15.231-15.192a228.865 228.865 0 0 0-4 22.854c4.757-1.593 9.838-3.744 18.241-7.27-1.656-1.822-2.832-3.327-4.056-4.648-1.054-1.128-9.379-10.107-10.19-10.936h.005Z" fill="currentColor"></path><path d="M107.088 132.948a1.57 1.57 0 1 0 0-3.14 1.57 1.57 0 0 0 0 3.14ZM106.564 140.8a1.57 1.57 0 1 0 0-3.14 1.57 1.57 0 0 0 0 3.14ZM105.517 172.728a1.57 1.57 0 1 0 0-3.14 1.57 1.57 0 0 0 0 3.14Z" fill="#111"></path><path fillRule="evenodd" clipRule="evenodd" d="M43.755 83.858c11.861-4.072 24.976-6.806 29.52-8a.53.53 0 0 1 .288 1.021c-2.817.826-5.627 1.742-8.479 2.533-6.741 1.87-13.371 3.4-21.722 6.315a.8.8 0 0 1-1.073-.656c-.61-4.9-1.985-13.78-2.277-17.373-.183-2.279-.256-4.556-.419-6.819a.49.49 0 0 1 .446-.522.5.5 0 0 1 .523.446c.264 2.397 2.669 19.397 3.193 23.055Z" fill="#111"></path><path fillRule="evenodd" clipRule="evenodd" d="M47 73.175a7.532 7.532 0 0 1 1.91-3.052c1.372-1.174 3.227-1 5-.612 4.346.946 11.367 4.459 13.164-3.763a11.2 11.2 0 0 0 .131-3.882.525.525 0 1 0-1.047.076c0 2.173-.876 5.97-2.774 7.048-3.893 2.211-12.03-4.46-15.886.463a7.892 7.892 0 0 0-1.413 3.468.475.475 0 0 0 .525.606.467.467 0 0 0 .39-.352Z" fill="currentColor"></path><path fillRule="evenodd" clipRule="evenodd" d="M63.7 103.046a.501.501 0 0 1 .5-.178c3.346.214 4.341 5.33.68 6.47-4.258 1.325-5.337-4.622-1.648-6.266a.497.497 0 0 1 .468-.026Zm.13.793a3.002 3.002 0 0 0-.994 1.408 3.852 3.852 0 0 0-.235 1.487c.115.952.687 1.38 1.779 1.041a1.75 1.75 0 0 0 1.22-1.844 1.754 1.754 0 0 0-.252-.749 2.268 2.268 0 0 0-1.521-1.343h.003Z" fill="#111"></path><path fillRule="evenodd" clipRule="evenodd" d="M10.23 91.11a.516.516 0 0 1 .55-.411c7.133.219 7.227 10.973-.707 10.96-6.812-.011-6.717-10.862-.052-10.589.072 0 .143.013.209.04Zm.262.586a.475.475 0 0 1-.445.345c-4.566.406-4.671 7.974.026 7.98 4.255 0 5.478-4.109 3.455-6.687a4.769 4.769 0 0 0-3.036-1.634v-.004ZM80.812 29.768a.536.536 0 0 1 .654-.583 6.338 6.338 0 0 1 5.313 6.484c-.119 6.019-7.542 7.144-10.442 4.2-2.9-2.944-1.157-9.104 4.475-10.101Zm.733.553a.475.475 0 0 1-.366.371c-5.487 1.591-6.5 9.181-.6 9.077 6.112-.107 5.821-7.729.966-9.448ZM124.334 43.9c.119-4.486 3.922-5.152 6.15-8.783 1.91-3.111 1.519-8.182 5-9.522a.542.542 0 0 0 .366-.663.526.526 0 0 0-.654-.351c-4.825 1.128-4.317 6.778-6.1 9.68-2.1 3.422-6.545 4.389-5.731 9.706a.5.5 0 0 0 .523.451.482.482 0 0 0 .446-.518ZM130.562 46.756c.134-.843.354-1.67.655-2.47.961-2.482 3.181-2.83 5.443-4.085a6.596 6.596 0 0 0 3.716-6.185.55.55 0 0 0-.47-.594.512.512 0 0 0-.576.458 9.04 9.04 0 0 1-.785 2.111 5.495 5.495 0 0 1-2.015 2.377c-2.192 1.468-6.891 2.2-7.014 7-.003.457.023.914.078 1.368a.485.485 0 1 0 .968.015v.005ZM177.356 59.752c-2.308-6.328-2.672-8.446-4.868-13.221a.83.83 0 0 1 .302-1.01.836.836 0 0 1 .352-.134c6.222-.555 11.447-.65 17.587-.981a.822.822 0 0 1 .68 1.341c-5.369 6.283-9.051 10.153-12.876 14.146-.139.168-.959.457-1.177-.141Zm11.567-13.624c-3.454.168-13.137.661-14.5.769a83.919 83.919 0 0 1 3.768 11.881c6.347-7.821 5.352-6.359 10.732-12.65Z" fill="currentColor"></path><path fillRule="evenodd" clipRule="evenodd" d="M144.355 70.294c4.122-10.173 3.794-9.633 4.239-9.807.484-.189.383-.02 3.3 1.072 3.338 1.252 6.4 2.167 9.657 3.657 1.572.72 3.1 1.555 4.684 2.254a.547.547 0 0 1 .288.691.553.553 0 0 1-.706.288c-6.687-2.494-6.394-2.467-8.061-3.08-2.881-1.06-5.911-2.029-8.4-3.05-1 2.35-3.847 9.3-4.344 10.414a.747.747 0 0 1-.73.462.75.75 0 0 1-.683-.53l-1.414-5.214a.487.487 0 0 1 .295-.608.49.49 0 0 1 .621.268c.205.49.731 1.647 1.254 3.183Z" fill="#111"></path><path fillRule="evenodd" clipRule="evenodd" d="M155.346 67.109c-.243-.394-.688-.341-1.858.178-.522.238-1.029.508-1.517.809-.037-.1-.367-.971-.419-1.066-.872-1.593-1.762-1.431-1.44.508.118.477.261.947.429 1.408-.405.239-1.372.817-1.763 1.115-.426.323-1.295 1.077-1 1.512.414.721 2.638-.657 3.275-1.029.24.7.783 2.368 1.488 2.149.705-.2.316-1.987-.033-3 .475-.282 1.446-.865 1.891-1.189.801-.646 1.172-.959.947-1.395ZM157.963 74.96a2.506 2.506 0 0 1-2.512-2.036c-.322-1.726.68-3.083 1.649-4.52a.478.478 0 0 1 .837.458c-.481 1.13-1.264 2.61-.942 3.742a1.025 1.025 0 0 0 .757.726 1.021 1.021 0 0 0 .997-.326c.693-.681.726-1.175 1.544-3.067a.817.817 0 0 1 1.507.02.795.795 0 0 1-.016.621c-.929 2.2-1.766 5.011-3.768 6.663-1.928 1.591-4.264-.058-4.319-2.211a.535.535 0 0 1 .472-.581.518.518 0 0 1 .516.274.542.542 0 0 1 .059.197 1.945 1.945 0 0 0 1 1.351 1.065 1.065 0 0 0 1.256-.223 6.43 6.43 0 0 0 .963-1.088ZM152.18 98.61a12.698 12.698 0 0 1 1.1-4.7 8.454 8.454 0 0 1 2.067-3.154 5.805 5.805 0 0 1 4.914-1.355 5.796 5.796 0 0 1 4.086 3.049c2.251 4.153-1.555 9.811-6.2 10.766a.568.568 0 0 0-.444.615.553.553 0 0 0 .628.432c6.908-1.027 9.832-8.081 7.459-12.585-2.226-4.224-8.077-5.47-11.568-2.084a11.472 11.472 0 0 0-3.01 9.087.5.5 0 0 0 .524.45.488.488 0 0 0 .444-.521ZM152.729 103.782c1.4 1.011 2.834 2.473 3.429 1.886.941-.94-3.052-3.855-4.4-4.326-.383-.136-1.531-.434-1.754.095-.212.687 1.912 1.755 2.725 2.345ZM149.353 104.671c.335.268 1.355.809 2.146 1.322.791.513 2.75 2.167 3.324 1.565.357-.429-.452-1.365-.654-1.581a15.151 15.151 0 0 0-3.979-2.554c-.49-.155-1.473-.4-1.674.076-.149.349.058.54.837 1.172ZM149.851 106.375c-.313.292-.61.6-.89.924a.543.543 0 0 0-.136.392.54.54 0 0 0 .187.37.525.525 0 0 0 .396.124.54.54 0 0 0 .364-.198c.29-.315.56-.646.811-.992a.488.488 0 0 0 .125-.355.481.481 0 0 0-.337-.428c-.062-.019-.127-.025-.191-.019a.478.478 0 0 0-.329.182Z" fill="#111"></path><path fillRule="evenodd" clipRule="evenodd" d="M156.471 96.53a38.36 38.36 0 0 1-1.7 3.807.473.473 0 0 1-.212.3.454.454 0 0 1-.363.051.509.509 0 0 1-.367-.591A30.931 30.931 0 0 1 155.791 94a.808.808 0 0 1 1.466.062c.398.886.73 1.8.994 2.735 1.354-.3 1.956-.3 2.984-.513a.845.845 0 0 1 .89.427.83.83 0 0 1-.184.965c-2.3 2.118-3.829 3.063-5.129 4.154-.5.5-1.2-.234-.759-.746a32.012 32.012 0 0 1 2.643-2.709 6.77 6.77 0 0 0-.759.223.81.81 0 0 1-1.073-.618 10.386 10.386 0 0 0-.393-1.45ZM185.887 84.735c1.492-3.314 4.523-9.052 4.449-9.945-.281-3.422-4.962-4.714-6.071-2.34a105.99 105.99 0 0 0-4.475 10.408c.418-.738 1.963-3.041 2.538-1.146.139.514.184 1.048.131 1.578.6-.8 2.46-2.892 3.245-1.12.232.844.259 1.731.078 2.588l.105-.023Z" fill="currentColor"></path><path fillRule="evenodd" clipRule="evenodd" d="M186.594 69.65c1.657-.021 2.369.49 3.376 1.84.762.951.9 1.24 1.308 1.075.572-.207.232-1.371.027-1.85a4.632 4.632 0 0 0-4.92-2.578c-.538.141-1.585.63-1.414 1.18.149.361.307.333 1.623.333Z" fill="#111"></path><path fillRule="evenodd" clipRule="evenodd" d="M192.325 69.351a5.04 5.04 0 0 0-5.26-2.08.812.812 0 0 1-.968-1.052c1.092-3.085 3.312-5.461 6.359-4.356a3.841 3.841 0 0 1 2.329 4.992 10.146 10.146 0 0 1-1.308 2.489.53.53 0 0 1-.34.518l-.027.015a.489.489 0 0 1-.782-.214.491.491 0 0 1-.003-.312Zm.55-1.345a5.693 5.693 0 0 0 .445-3.187c-.427-1.654-3.477-2.783-5.156.714a5.588 5.588 0 0 1 4.711 2.473ZM183.506 72.105a113.502 113.502 0 0 0-4.5 10.491c-.037.112-.05.23-.037.347a.81.81 0 0 0 .114.33c-.032.275-.26 1.733-.313 2.629-.053.617-.314 4.731-.419 6.184a.83.83 0 0 0 1.518.5c1.731-2.654 3.924-4.707 5.661-7.36a.626.626 0 0 0 .8-.293c1.444-2.832 4.815-8.541 4.815-10.206-.345-4.198-6.138-5.827-7.639-2.622Zm-1.2 14.746a2.62 2.62 0 0 0-2.038-.54 32.027 32.027 0 0 0-.183-2.712c.42-.18.435-.58 1.01-1.238a5.13 5.13 0 0 1 .419-.55c.076.218.128.444.157.673l.026.759a.77.77 0 0 0 .502.772.773.773 0 0 0 .885-.257c.415-.617 1.446-1.718 1.78-1.6.226.079.419.641.419.973.021.19.03.38.026.57-.116.075-2.215 2.256-3 3.15h-.003Zm7.137-11.679c-.708 1.9-2.108 4.735-3.061 7.058a1.64 1.64 0 0 0-1.728-1.432 3.16 3.16 0 0 0-1.57.746c-.065-.1-.254-1.383-1.439-1.361 1.076-2.417-.386.615 3.349-7.385.42-.911 1.623-.916 2.617-.476a2.697 2.697 0 0 1 1.835 2.85h-.003ZM35.537 53.9c-1.91-1.008-16.4-9.1-19.131-10.52a.77.77 0 0 1-.418-.6c-.084-.824-.24 0 15.545-15.719a.8.8 0 0 1 1.361.421 205.584 205.584 0 0 1 3.69 26.888.487.487 0 0 1-.968.1l-.079-.57Zm-3.952-24.613c-2.172 2.158-11.122 10.957-13.451 13.191 6.427 3.451 11.23 6.542 17.22 10.072-.925-5.699-2.021-14.432-3.769-23.263ZM116.483 26.37c0-2.258.214-4.8-1.23-6.574-1.646-1.961-3.835-1.773-6.359-1.472-2.588.323-5.121.448-7.774 1.008-1.907.52-2.851 2.663-3.14 4.4-.419 2.436-.026 5.358-.026 7.3.049 3.486-.06 10.022 2.015 12.923a5.423 5.423 0 0 0 3.664 1.9c2.849.481 6.81.715 9.553-.151 4.087-1.267 3.424-6.341 3.297-19.334Zm-3.769 17.766a20.96 20.96 0 0 1-10.337-.314 2.633 2.633 0 0 1-1.1-.82c-1.7-2.329-1.738-9.106-1.78-12-.143-3.429-1.388-8.9 1.649-10.627.217.006.434-.019.645-.073a3.238 3.238 0 0 0 1.865 1.954 6.937 6.937 0 0 0 3.179.187 13.423 13.423 0 0 0 2.082-.308c1.349-.339 2.664-1.129 2.738-2.5a3.18 3.18 0 0 1 2.367 1.156c1.076 1.292.864 3.749.864 5.582.001 12.513.634 16.879-2.172 17.763Z" fill="#111"></path><path fillRule="evenodd" clipRule="evenodd" d="m37.133 118.594-.287.081c-1.78.173-1.6 2.845.026 3.162 1.585.309 2.594-2.515.261-3.243Z" fill="currentColor"></path><path fillRule="evenodd" clipRule="evenodd" d="M36.767 118.191a.555.555 0 0 1 .5-.1c.52.056 1.012.264 1.414.6a2.406 2.406 0 0 1 .156 3.075c-1.288 1.844-4.029.69-4.056-1.507a1.915 1.915 0 0 1 .419-1.374 1.795 1.795 0 0 1 1.567-.694Zm.262.942a.534.534 0 0 1-.131.026c-.7.21-.741 1.711.131 1.874.584.11 1.204-1.157 0-1.9ZM45.325 133.671a21.213 21.213 0 0 0 3.062-3.012c.118-.177.768-1.241.366-1.6-.686-.541-2.509 1.584-2.879 1.939-.66.636-2.7 2.355-2.093 3.026.307.392 1.419-.273 1.544-.353Z" fill="#111"></path><path fillRule="evenodd" clipRule="evenodd" d="M55.924 140.852a32.724 32.724 0 0 0-2.067-4.323l.523.115a.803.803 0 0 0 .785-.264.797.797 0 0 0 .131-.817 8.051 8.051 0 0 0-5.051-4.114.533.533 0 0 0-.724.488.534.534 0 0 0 .098.32l-2.36 1.8a.49.49 0 0 0-.835.5 23.014 23.014 0 0 0 2.146 4.719.782.782 0 0 0 1.413-.356l.053-.461c.209.152.415.306.6.451 1.31 1.011 2.7 1.9 4.03 2.9a.821.821 0 0 0 1.258-.958Z" fill="currentColor"></path><path fillRule="evenodd" clipRule="evenodd" d="M52.836 125.33a7.474 7.474 0 0 0-5.26-2.946 6.257 6.257 0 0 0-1.853.2c-3.3-6.008-8.084-10.657-14.941-10.546a8.935 8.935 0 0 0-1.264-1.877c-.484-.678-1.857-2.629-2.565-2.173-.716.519.741 2.453.916 2.7.49.736 1.044 1.426 1.657 2.063a22.133 22.133 0 0 0-.008 3.046c.295 5.624 3.83 9.622 7.944 13.425a8.3 8.3 0 0 0-.564 2.963 10.409 10.409 0 0 0 2.041 5.59.814.814 0 0 0 1.242.122.812.812 0 0 0 .224-.41c.374-1.674.893-2.758 1.289-4.362a.726.726 0 0 0 .52.172.726.726 0 0 0 .494-.238c1.519-1.711 3.15-3.3 4.763-4.964a.528.528 0 0 0 .481-.178.525.525 0 0 0 .095-.505.537.537 0 0 0 .025-.142c2.609-.209 2.368-.391 4.24-.625a.812.812 0 0 0 .65-.503.805.805 0 0 0-.126-.812Zm-13.5 9.927c-1-2.14-.841-2.99-.791-5.045.238.217 1.669 1.512 2.137 1.948-.53.996-.981 2.031-1.35 3.097h.004Zm2.852-3.766c-5.835-5.861-11.4-9.256-11.07-17.82 7.6.046 12.151 6.831 15.7 13.646-1.712 1.503-3.39 2.912-4.634 4.174h.004Zm5.335-5.289a60.197 60.197 0 0 0-1.213-2.516 8.195 8.195 0 0 1 4.227 1.608 14.45 14.45 0 0 0-3.018.906l.004.002ZM17.165 85.781C10.764 75.967 7.022 73.6 7.587 70.034c.429-2.7 3.025-4.562 5-6.18 3.659-3 9.077-9.4 13.765-2.7a76.681 76.681 0 0 1 5.522 9.862c1.1 2.233 2.458 3.971.733 6.755-1.8 2.908-11.047 12.518-15.284 8.369a.507.507 0 0 1-.158-.359Zm.89-.405c3.379 3.081 11.825-6.233 13.19-8.435a2.78 2.78 0 0 0 .393-2.675 17.937 17.937 0 0 0-1.2-2.525 76.474 76.474 0 0 0-5.421-9.641c-3.463-4.9-6.856-.7-11.411 3.017-1.736 1.417-4.052 3.022-4.423 5.182-.306 1.785 1.345 3.554 2.33 5 2.32 3.395 4.687 6.666 6.542 10.077Z" fill="#111"></path><path fillRule="evenodd" clipRule="evenodd" d="M23.865 64.115c-2.407-4.074-7.066 1.313-9.5 3.174-1.047.812-3.114 2.3-2.538 3.907l-.445-.157c.6.746 1.178 1.851 2.172 2.175 2.25.749 5.653-2.62 7.3-3.837 1.676-1.248 4.398-2.928 3.011-5.262Z" fill="currentColor"></path><path fillRule="evenodd" clipRule="evenodd" d="M11.172 70.6c-.074-1.6 1.6-2.982 2.748-3.913 1.649-1.336 4.3-4.263 6.909-4.793a3.277 3.277 0 0 1 3.742 1.8 3.061 3.061 0 0 1-.026 3.41c-.89 1.16-1.98 2.15-3.218 2.926-1.148.837-3.11 2.693-4.973 3.517-3.563 1.577-4.489-1.037-5.365-2.2a.5.5 0 0 1 .183-.747Zm1.152.8c.351.527.853.936 1.439 1.175 1.7.508 5.353-2.928 6.6-3.853 1.561-1.155 3.817-2.5 2.827-4.19a1.984 1.984 0 0 0-1.231-1.052c-2.039-.458-5.337 3.116-7.118 4.407a9.272 9.272 0 0 0-2.12 1.791c-.791 1.076-.221 1.33-.397 1.722Z" fill="#111"></path><path d="M17.584 77.991a1.047 1.047 0 1 0 0-2.094 1.047 1.047 0 0 0 0 2.094ZM21.248 74.918a1.047 1.047 0 1 0 0-2.094 1.047 1.047 0 0 0 0 2.094ZM19.678 81.131a1.047 1.047 0 1 0 0-2.094 1.047 1.047 0 0 0 0 2.094ZM23.342 78.514a1.047 1.047 0 1 0 0-2.094 1.047 1.047 0 0 0 0 2.094ZM21.771 84.271a1.047 1.047 0 1 0 0-2.094 1.047 1.047 0 0 0 0 2.094ZM25.305 81.131a1.047 1.047 0 1 0 0-2.094 1.047 1.047 0 0 0 0 2.094ZM24.912 72.233a1.047 1.047 0 1 0 0-2.094 1.047 1.047 0 0 0 0 2.094Z" fill="#111"></path><path fillRule="evenodd" clipRule="evenodd" d="M26.477 73.32c-.809 1.076.1 2.169.764 3.058.309.547.8.968 1.387 1.19 1.441.338 1.218-1.3.707-2.04-.565-.818-2.261-3-2.858-2.207Z" fill="#111"></path></svg>