<svg width="200" height="200" viewBox="0 0 200 200" fill="none"><path d="M59.968 101.608c-3.208 0-6.4-.17-9.509-.231a.547.547 0 0 1-.525-.758.545.545 0 0 1 .525-.331c3.132-.073 6.311-.363 9.467-.526.005.621.021 1.238.042 1.846ZM59.884 96.486c-3.377-.037-6.759-.082-10.125.047-.9.035-.883-1.346 0-1.383 3.33-.141 6.722-.363 10.114-.474 0 .624 0 1.215.011 1.81ZM59.91 91.442v.994a155.037 155.037 0 0 1-10.419-.763c-.752-.081-.789-1.21 0-1.189l4.734.185c1.856.49 3.765.75 5.685.773ZM84.236 114.132a76.113 76.113 0 0 1-9.147-1.394c.132-.642.263-1.294.4-1.936 3 .568 5.966 1.222 8.868 2 .698.186.652 1.398-.121 1.33ZM84.3 110.429c-2.808-.468-5.57-1.131-8.357-1.81.147-.652.268-1.267.389-1.825a77.133 77.133 0 0 1 8.284 2.3.69.69 0 0 1-.316 1.335ZM86.34 107.168a519.99 519.99 0 0 1-9.557-2.409 5.896 5.896 0 0 0 .252-1.562c3.209.847 6.43 1.65 9.668 2.43.985.237.597 1.83-.363 1.541ZM101.656 85.372l-.716.4a23.701 23.701 0 0 0-11.85 14.879l-.326 1.31-21.212-4.923a3.937 3.937 0 0 1 .027-.736c.56-4.276 3.271-5.365 6-5.4a62.685 62.685 0 0 1-.91 4.166.61.61 0 0 0 1.188.268c.408-1.442.763-2.9 1.052-4.36 2.556.242 4.8 1.147 4.881.883 1.829-5.964 3.03-12.128 4.608-18.172 1.961.526 3.934.979 5.911 1.431a167.71 167.71 0 0 0-10.624 20.87c-.3.706.778 1.312 1.089.584a186.118 186.118 0 0 1 10.6-21.212c3.781.873 7.574 1.683 11.329 2.593-.537 2.307-1.353 5-1.047 7.419ZM165.67 88.759a.832.832 0 0 0 .825-.484.841.841 0 0 0-.169-.941.836.836 0 1 0-.656 1.425Z" fill="currentColor"></path><path d="M21.258 110.113a.622.622 0 0 0 0-1.241c-4.88-.226-9.77-.11-14.633.347 0-16.426.295-32.9.069-49.324 6.311.163 12.624-.116 18.934 0a.612.612 0 0 0 .526-.947A24.81 24.81 0 0 1 27.48 52c1.233-3.049 5.191-4.949 8.173-3.056 3.729 2.367 3.229 11.045 3.65 11.087.09 0 14.264.5 20.986.1a140.22 140.22 0 0 0-.479 18.02 14.902 14.902 0 0 0-4.881-.358c-3.374.382-5.422 3.082-6.022 6.222-.631 6.1 6.14 7.243 10.78 7.45.553.025-.112-1.311.323 11.422-.07 1.856.021 3.714.274 5.554-3.945.131-7.992.028-11.9.357-.41.035-.584.717-.11.784 4.23.495 8.502.522 12.738.079a.65.65 0 0 0 .584-.611.646.646 0 0 0-.058-.299c.064-2.062-.281-4.208-.352-6.312-.127-3.771-.255-7.544-.337-11.318-.008-.368-.3-.832-1.178-.894-3.1-.223-7.437-.484-9.067-3.256a1.122 1.122 0 0 0 0-.116c-.7-3.3 2.84-4.408 5.359-4.544 1.026-.055 3.046.427 3.94-.158 1.589-1.041 1.231-10.5 1.367-21.843 0-.242 0-.458.258-.457 6.356.022 12.744-.027 19.108 0 0 2.982-.308 6.688 1.536 9.136a7.476 7.476 0 0 0 6.311 2.666c2.336-.089 5.574-.8 7.153-2.74 1.829-2.252 1.988-6 2.162-8.841 6.03.457 12.086.448 18.114-.027.526-.031.647-.463.594-.946-.331-16.416-.712-32.8-.3-49.246.01-.41-.737-.426-.774-.426-18.115.1-91.106.037-109.125.105-.526 0-.775-.042-.8.416-1.078 16.338-.244 32.977.166 49.35a.5.5 0 0 0-.042.221c-1.052 16.478-.226 33.256.179 49.756-.4.1-.273.745.142.762 5.103.213 10.225.061 15.306.074Zm93.636-58.939a45.14 45.14 0 0 0 .373 7.69c-5.848.21-11.744.047-17.577.421-1.431-.09-1.337 4.928-2 7.047-.906 2.9-3.882 3.933-6.674 4.134-3.125.225-6.045-1.014-6.838-4.281-.49-2.019-.273-7.511-.915-7.532-6.527-.206-13.312-.441-19.813.379.043-2.681-.343-1.687-.683-17.278-.022-1.009-2.068-.409-8.679-1.646-.618-.116-6.591-.261-4.928-5.933 1.58-5.39 8.126-5.193 12.623-5.222.778 0 1-.311 1.005-.747.069-5.917.231-11.871.378-17.793 18.03.205 36.055.052 54.069.31.001-1.16-1.035 15.207-.341 40.451ZM59.705 27.727c-5.38-.189-12.9.427-13.906 7.116-1.033 6.882 5.784 6.775 13.617 7.085.794.031.349 7.6.484 11.471.058 1.688.163 3.5.273 5.465-6.611.237-13.249 0-19.849.326-.121-3.261-.135-6.367-2.036-9.231a6.399 6.399 0 0 0-5.112-2.924c-6.415-.175-7.805 6.459-7.89 11.571A124.109 124.109 0 0 0 6.525 59c0-16.189.284-32.43.069-48.609 17.846.232 35.712.079 53.569.337a129.825 129.825 0 0 0-.458 16.999Z" fill="#111"></path><path d="M59.81 78.161c-.227-6.01-.067-12.03.479-18.019-1.783.1-4.082.147-6.506.152a103.44 103.44 0 0 1 2.693 17.452c1.124.007 2.243.146 3.334.415ZM52.152 53.383c.464 1.859.905 3.735 1.342 5.612 2.235 0 4.465-.038 6.69-.115-.052-.921-.274-4.746-.274-5.675-1.252-1.231-2.461-3.029-4.481-1.578-.484.347-.931-.453-.468-.8a3.176 3.176 0 0 1 4.055 0c.3.246.589.489.873.742 0-4.029.221-9.572-.457-9.6-7.748-.3-14.648-.218-13.617-7.085 1-6.689 8.525-7.3 13.906-7.116-.068-1.646-.09-3.308-.09-4.975C46.333 23.835 34.1 33.587 33.192 47.077A6.484 6.484 0 0 1 38.3 50c1.9 2.864 1.914 5.97 2.035 9.231 3.992-.184 8-.184 12.008-.2-.382-1.781-.762-3.567-1.194-5.344-.163-.687.839-.962 1.003-.304Z" fill="currentColor"></path><path d="M49 86.072a6.819 6.819 0 0 1-.09-2.046c.6-3.156 2.63-5.817 6.022-6.222h.206a119.517 119.517 0 0 0-2.53-17.5c-6.417 0-13.239-.246-13.3-.253-.574-.056.468-11.78-6.185-11.834A27.12 27.12 0 0 0 41.007 67.5a23.145 23.145 0 0 1 6.533 15.826A3.373 3.373 0 0 0 49 86.072ZM60.9 22.694c-.037 1.846-.089 3.681-.1 5.528 0 .436-.226.736-1 .746-4.523.06-11.043-.167-12.623 5.223-1.469 5.012 2.969 5.567 4.928 5.933 6.73 1.259 8.637.625 8.678 1.646.146 3.593.2 7.185.326 10.772a3.646 3.646 0 0 0 3.5.7 8.166 8.166 0 0 0 3.791-2.683c.42-.527 1.172.146.9.689a7.36 7.36 0 0 1-5.26 3.335 5.61 5.61 0 0 1-2.856-.484c.11 1.641.3 3.324.279 4.949 2.325-.289 4.691-.447 7.063-.526.784-2.33 1.579-4.644 2.488-6.937.221-.558 1.117-.326.91.242a191.246 191.246 0 0 0-2.314 6.674c3.9-.079 7.83.105 11.666.163.641.01.426 5.512.915 7.532.037.152.105.278.147.42a25.575 25.575 0 0 0 7.49-18.277c-.17-14.89-14.685-26.12-28.928-25.645Z" fill="currentColor"></path><path d="M169.693 89.448c.456.391.516.968.916 1.373a.482.482 0 0 0 .8-.21c.366-1-1.05-2.76-3.208-2.72-.405-.031-.457.575-.095.684a4.407 4.407 0 0 1 1.587.873ZM111.975 130.226a3158.794 3158.794 0 0 1-29.454-6.348.598.598 0 0 1-.442-.411 5.227 5.227 0 0 1 .863-4.618c2.534-3.323-.659-6.345-4.281.095a10.91 10.91 0 0 0-1.189 3.2c-.032 0-2.861-.889-4.266-1.152.269-.467 3.657-16.874 3.719-17.188.1-.526.163-.814-.3-.942-3.253-.888-9.617-2.334-9.062-6.59 1.178-9.03 12.028-3.855 12.2-4.444 1.761-5.975 3.035-12.129 4.6-18.167 6.054 1.578 12.223 2.8 18.309 4.261-.668 2.908-1.794 6.416-.574 9.23 1.315 3.03 4.734 4.2 7.827 4.318 6.172.231 7.635-3.3 9.377-9.246.961.222 6.453 1.368 6.706 1.115-.103.716-.279 1.42-.526 2.1-.143.408.519.581.647.179.567-1.778 1.159-4.815-1.3-5.455-.258-.067-.45.327-.189.447a2.29 2.29 0 0 1 1.336 1.857c-.064-.047-8.737-1.672-9.194-1.736a.6.6 0 0 0-.726.411 22.455 22.455 0 0 1-2.525 6.49 4.978 4.978 0 0 1-4.207 2.63c-3.445-.135-6.536-2.343-6.606-5.849-.042-2.067 1.441-7.4.831-7.558-6.225-1.654-19.692-4.439-19.908-4.15-.279.042-3.708 12.334-4.818 18.246-4.865-2.209-10.7-1.941-12.175 3.992-1.362 5.486 5.112 7.773 9.267 8.973-1.225 4.865-2.237 9.743-3.6 15.479-.115.484-.747 1.7.074 2.051.821.351 4.87 1.578 4.928 1.578a3.613 3.613 0 0 1-1.147 2.477.085.085 0 0 1-.063.074 19.06 19.06 0 0 0-4.875 3.218c-1.773 1.436-5.749 4.513-5.754 4.781a21.602 21.602 0 0 0 0 3.956c.017.051.05.096.094.127a.255.255 0 0 0 .301 0 .256.256 0 0 0 .094-.127c.2-1.236-.183-3 .578-3.745 2.79-2.744 6.128-6.028 9.809-7.464a.323.323 0 0 0 .085-.057 27.92 27.92 0 0 0 5.375 5.017c1.386.99 3.066 2.325 4.828 2.493-4.477 8.019-14.794 16.776-23.5 13.77a18.05 18.05 0 0 1-5.9-3.424.334.334 0 0 0 0-.126.286.286 0 0 0 0-.263c-.578-1.457-1.157-3.414-2.472-4.387a10.533 10.533 0 0 0 2.057-1.783 18 18 0 0 0 3.156-6.19c.072-.253-.3-.348-.395-.106-2.724 6.985-4.323 6.63-7.048 8.905a35.78 35.78 0 0 1-5.259-7.511.172.172 0 0 0-.095-.073c4.246-5.568 3.741-10.4 5.691-17.026.155-.526.3-1.632.71-1.372.607.38.459 2.33.463 2.992.03 5.219-.551 6.638-.347 6.911a2.52 2.52 0 0 0-.258 1.973.23.23 0 0 0 .113.114c.05.024.106.029.16.014a.233.233 0 0 0 .17-.249c-.717-2.53 4.477-5.4 5.258-2.63.063.221.439.189.416-.058-.216-2.342-3.4-1.8-5.128-.147.251-1.973.385-3.96.4-5.949.005-.957.148-3.251-.841-3.9-1.677-1.095-2.1 2.631-2.33 3.571-.762 3.122-1.094 6.443-2.1 9.5-1.006 3.057-2.634 6.437-5.223 8.279-3.588 2.552-7.818 5-12.354 4.249-.527-.087-.779.742-.232.831 5.938.969 11.492-2.167 15.116-6.764 2.1 4.308 5.039 8.542 9.178 11.093v.1c-5.228 7.542-15.978 12.064-25.067 11.392-21.089-1.561-32.517-35.218-.936-40.636 3.292 3.656 9.052 2.078 12.549-.178a15.698 15.698 0 0 1 5.46 3.481.305.305 0 0 0 .431-.431 14.53 14.53 0 0 0-5.912-3.619s-.915-.473-.952-.462a44.898 44.898 0 0 0-1.93-8.589c-.127-.375-.754-.268-.479.783 1.015 3.878 1.725 8.842 1.725 8.842-.231.215-6.521 3.419-10.266-.426a64.015 64.015 0 0 0-.526-9.557c-.269-2.1-.384-3.578-2.1-4.907a.416.416 0 0 0-.583.077c-.872 1.14-2.163 1.266-3.046-.24a2.665 2.665 0 0 1-.463-1.615 1.954 1.954 0 0 1 1.912-1.433c.031 0 .047-.026.074-.037 4.991-.747-3.213-9.478-3.682-11.1a2.654 2.654 0 0 1 0-1.578c.721-2.166 4.348-.718 7.085-.931 1.188-.092 2.524-.949 2.019-2.319-.17-.462-.768-.942-.794-1.441.037-.593.877-.482 1.368-.232a32.302 32.302 0 0 1 2.929 2.738 2.193 2.193 0 0 0-2.025 1.578c-.11.387.492.671.673.284a1.9 1.9 0 0 1 1.731-1.116.38.38 0 0 0 .2-.1 62.91 62.91 0 0 1 4.881 6.154 30.194 30.194 0 0 1-3.6-1.652c-.409-.225-.777.4-.368.621 4.3 2.3 5.512 2.322 6.369 2.866.284.247.241 0 .179.3a4.864 4.864 0 0 1-1.055 2.165c-.4.357.142.831.494.631.226-.151.42-.346.568-.574a8.9 8.9 0 0 1 .815 4.639c-.457 4.494-4.91 6-8.841 5.26-.41-.077-.594.527-.173.636 6.547 1.71 12.2-3.958 8.657-11.36.373-.837.526-1.8.031-2.209a6.246 6.246 0 0 0-1.767-.837 72.646 72.646 0 0 0-8.941-10.04c-.074-1.052-1.972-1.942-2.856-2.283-7.708-2.974-16.189 4.885-16.636 12.37-.3 5.112 3.371 10.082 6.932 13.759a15.312 15.312 0 0 0 5.044 3.045 9.58 9.58 0 0 0 4.329.363c0 .053.335 7.463.373 7.968-11.161 1.641-21.445 8.911-20.144 21.359a22.975 22.975 0 0 0 6.227 13.418c-.463 3.976-3.156 16.21 3.109 16.136a.396.396 0 0 0 .147.063c8.533 1.625 17.393 1.189 26 .258a231.317 231.317 0 0 1 .973 24.226.454.454 0 0 0 .9 0c.1-11.739-1-24.622-1.242-24.947a29.329 29.329 0 0 0 .931-11.466 23.675 23.675 0 0 0 10.096-8.415c4.539 3.829 10.136 5.4 16.179 2.846a31.214 31.214 0 0 0 14.622-13.88 2.223 2.223 0 0 0-.2-1.71c-.3-.46-.526-.962-.868-1.409a21.956 21.956 0 0 0 3.156-4.208c7.3 1.641 14.647 3.158 21.9 4.986.758.19 1.084-1.037.311-1.199Zm-66.56 34.355c-17.976 1.847-25.627-.168-25.983-.147-5.529.33-3.529-10.845-3.034-15.026a23.252 23.252 0 0 0 19.129 7.011 36.547 36.547 0 0 0 10.645-2.925 32.1 32.1 0 0 1-.757 11.1v-.013Zm38.463-32.546a34.764 34.764 0 0 1-7.274-6.19c1.42-1.052 1.131-1.58 1.431-3.372a9.864 9.864 0 0 1 3.271-5.848c.989-.958 2.483-.526 1.867.61-.556 1.44-2.259 3.02-1.793 6.1.039.257 0 1.152 1.578 1.541a370.96 370.96 0 0 0 6.28 1.483c-1.523 2.111-2.461 3.85-5.36 5.676ZM126.423 123.273a.527.527 0 0 0 .452.599.528.528 0 0 0 .6-.452c2.987-11.761 1.63-8.306 6.537-24.841a.212.212 0 0 0 .19-.026c.526-.3 3.25-2.383 3.787-2.194.836 5.326 2.26 15.067 4.781 19.813a10.115 10.115 0 0 0 7.179 5.091c7.289 1.626 10.038-.789 13.712.274a.33.33 0 0 0 .179-.636c-2.766-1.008-5.76.139-8.61.136-3.929 0-8.632-.677-11.1-4.092-1.842-2.55-2.457-5.99-3.224-8.983-1.021-3.981-1.867-8-2.662-12.039a.32.32 0 0 0-.152-.187.31.31 0 0 0-.24-.025c-.1.03-.743.444-.828.5-.037-.873-.189-2.488.289-2.987.478-.499.448-.274 1.052-.405a4.471 4.471 0 0 0 3.656-6.112c-.117-.308-.6-.182-.5.132a3.98 3.98 0 0 1-4.36 5.259.332.332 0 0 0-.321.247 15.892 15.892 0 0 0-.526 4.1c0 .261.594-.189-2.119 1.546 1.188-4.013 2.377-8.021 3.524-12.05a.481.481 0 0 0-.35-.553.483.483 0 0 0-.581.301c-2.9 8.545-6.964 22.393-9.147 31.1-.494 1.998-1.376 4.411-1.218 6.484Z" fill="#111"></path><path d="M188.265 174.254c-1.13-2.63-2.477-7.527-5.1-9.189a.453.453 0 0 0-.3-.566c-.105-.032-.838-11.061-1.059-15.444 3.156-1.12 8.759-3.849 10.346-6.175 3.969-5.815 3.153-10.728 1.378-15.521-4.435-11.973-.7-33.856-5.954-42.86-1.956-3.351-9.079-7.579-13.091-7.211-6.222.571-10.155 6.741-9.562 8.389.189.526.942.411 1.368.337 2.63-.459 5.3-1.052 7.216-3.082a24.983 24.983 0 0 0 .6 11.629 4.438 4.438 0 0 0 2.935 3.024c.205.062.401.154.579.273a1.372 1.372 0 0 0-.847.263c-.41.3-.027.993.405.7.871-.6 1.172.741 1.131 1.325a4.282 4.282 0 0 1-.442 1.652 1.742 1.742 0 0 1-1.088.989 1.747 1.747 0 0 1-1.458-.189c-.394-.168-.972.223-.662.663.051.071.107.138.168.2-.252.557-.564 1.451-.642 1.635-.963 2.3-2.87 7.8-3.055 10.146l-.09.163a66.912 66.912 0 0 0-.026-6.953.246.246 0 0 0-.245-.212.245.245 0 0 0-.244.212 39.54 39.54 0 0 1-.337 8.294c-2.076 3.135-4.6 5.792-6.969 8.784a4.023 4.023 0 0 0-1.162 2.63c.12 1.577 1.835 2.356 3.156 3.324a81.316 81.316 0 0 1-5.144 2.977c-2.807 1.475-5.712 3.063-8.878 3.539a24.86 24.86 0 0 1-10.057-1.052c-2.961-.82-5.659-2.882-8.168-4.633a.281.281 0 0 1 0-.058c-1.541-2.988-3.418-5.577-2.4-9.115.565-1.963 1.48-3.279.641-5.26-.164-.388-.819-.11-.683.29.874 2.575-1.351 5.259-1.105 7.963.217 2.377 1.741 4.386 2.9 6.39a34.162 34.162 0 0 1-4.155 7.763c-2.032-2.466-5.039-4.11-7.626-5.933-3.156-2.224-9.751-5.2-9.993-9.4 0-.315-.522-.321-.5 0 .277 4.073 4.478 5.924 7.458 7.963a90.879 90.879 0 0 1 9.073 6.659c-1.8 1.387-3.172 3.714-3.042 3.987a.192.192 0 0 0 .018.031c4.811 8.006 13.485 11.405 22.348 12.576 10.6 1.4 19.96-2.856 28.67-8.416a6.814 6.814 0 0 0 6.222 1.641c.236 6.581.246 11.221 1.078 15.327a38.62 38.62 0 0 1-17.252.705c-.2-.989-.247-1.994-.457-2.972-.074-.342-.674-.369-.715 0a8.6 8.6 0 0 0 .205 2.956 8.457 8.457 0 0 0-2.02 2.493 56.988 56.988 0 0 0-3.461 6.185c-2.162 4.5-4.871 9.176-6.39 14.033-.128.409.516.684.7.3 2.42-5.082 5.127-11.708 8.842-18.183.744-1.3 1.578-3.156 2.845-4.123 1.489.403 3.006.691 4.539.862a31.423 31.423 0 0 0-4.339 10.74c-.1.427.554.611.657.179a38.738 38.738 0 0 1 4.681-10.84c1.575.125 3.157.133 4.734.026.203 1.095.311 2.205.321 3.319 0 .098.039.193.109.262a.368.368 0 0 0 .524 0 .368.368 0 0 0 .109-.262c.097-1.13.034-2.269-.185-3.382a32.663 32.663 0 0 0 6.78-1.372.482.482 0 0 0 .626.1c1.11.8 1.8 2.675 2.362 3.834 4.533 9.287 4.513 12.46 6.826 15.794.263.379.967.164.8-.331-1.273-3.668-2.926-7.253-4.447-10.792Zm-40.578-18.866c-9.036-.87-18.14-3.85-23.289-11.771 3.96-.989 6.455-6.59 7.989-9.888.206-.442.574-.858.368-.994.37 0 1.878 1.341 2.241 1.578a21.925 21.925 0 0 0 6.004 3.155c3.237.877 7 1.622 10.341 1.11 3.834-.587 7.4-2.765 10.771-4.539 1.121-.589 2.33-1.352 3.608-2.183a5.512 5.512 0 0 1 1.494 6.044c-.48 1.262-1.449 2.34-1.625 3.681a4.446 4.446 0 0 0 .516 2.32 4.445 4.445 0 0 0 1.635 1.725 13.525 13.525 0 0 0 5.181 1.636c-7.898 4.533-15.578 9.055-25.234 8.126Z" fill="#111"></path><path d="M160.631 99.689c-.027 6.311 4.375 9.447 8.258 8.168a.302.302 0 0 0 .047-.526.296.296 0 0 0-.205-.047c-5.191 1.167-7.158-3.267-7.316-7.511a.318.318 0 0 0 .31-.276.316.316 0 0 0-.231-.345 8.58 8.58 0 0 1-1.983-.568c-.81-.557.109-1.657.5-2.309a28.208 28.208 0 0 1 3.208-4.328.272.272 0 0 0 .066-.14.261.261 0 0 0-.023-.153.265.265 0 0 0-.253-.154 50.578 50.578 0 0 1 1.877-4.734c.132-.289-.293-.528-.431-.253a49.555 49.555 0 0 0-2.5 6.028 23.214 23.214 0 0 0-1.5 1.862 13.293 13.293 0 0 0-2.156 3.566c-.334 1.22 1.18 1.536 2.332 1.72ZM31.282 85.83c.691-.172.384-1.284-.289-1.052-2.7.748-2.712 4.335-1.31 5.244.4.256.732-.358.363-.621-.494-.353-.445-1.286-.363-1.8a2.15 2.15 0 0 1 1.599-1.771Z" fill="#111"></path><path d="M162.746 100.467c-.342-.106-.595.453-.253.6.11.047.221.073.331.11a18.44 18.44 0 0 1 .737 3.266.236.236 0 0 0 .142.19.302.302 0 0 0 .231.142c2.457.171 3.416-3.887 4.134-4.229a.383.383 0 0 0-.037-.659.384.384 0 0 0-.257-.035c-1.434.341-3.591 1.063-5.028.615Zm4.428.479c-.752 1.3-1.578 3.208-3.05 3.192a28.605 28.605 0 0 0-.779-2.8 6.533 6.533 0 0 0 3.829-.392ZM37.357 177.294c-.706 4.276-1.388 8.616-1.835 12.928-.042.4.619.489.694.095 1.229-6.506 1.763-16.121 3.682-14.959.415.252.768-.375.378-.641-1.92-1.312-2.667 1.051-2.919 2.577ZM17.918 165.47c-1.629 7.255-3.194 14.533-4.534 21.843-.084.458.609.663.705.2 1.486-7.287 2.976-14.565 4.591-21.827.11-.5-.651-.71-.762-.216ZM123.772 125.135c.327.246.763-.311.442-.568-3.472-2.779-5.179-6.583-6.895-10.562-.162-.374-.77-.1-.658.279a20.967 20.967 0 0 0 7.111 10.851ZM119.443 126.265c.349.268.821-.336.479-.615a22.36 22.36 0 0 1-6.969-9.993.348.348 0 0 0-.626-.069.35.35 0 0 0-.042.253 20.878 20.878 0 0 0 7.158 10.424ZM111.217 118.965a.339.339 0 0 0-.652.179 18.495 18.495 0 0 0 5.428 8.589c.358.33.888-.194.526-.526a17.995 17.995 0 0 1-5.302-8.242ZM128.032 88.375c2.131-1.129 3.039-5.873.821-7.363-.29-.194-.529.272-.268.468 1.994 1.5.388 5.127-.858 6.49a.258.258 0 0 0 .305.405ZM134.2 88.023a6.135 6.135 0 0 0 .994-5.317.317.317 0 0 0-.6.163 5.849 5.849 0 0 1-.994 4.8c-.288.383.322.719.6.354ZM153.92 133.245a20.206 20.206 0 0 1-21.3-8.857c-.222-.336-.758-.03-.526.315 4.893 7.293 13.4 11.231 22.043 9.257.451-.103.252-.823-.217-.715ZM131.046 89.022c1.679-2.14 2.069-5.7.321-7.858-.137-.168-.413.046-.3.232a6.56 6.56 0 0 1-.394 7.363c-.15.197.211.47.373.263ZM166.338 92.725c.5-.15.594-.487.836-.926a.635.635 0 0 0-.1-.762.688.688 0 0 0-.522-.142.68.68 0 0 0-.461.284c-.246.426-.489.728-.342 1.225a.477.477 0 0 0 .589.321ZM60.447 125.887c.05.279.468.2.478-.063.053-1.342-1.467-2.164-2.666-1.946-1.579.286-2.32 2.014-2.435 3.455 0 .321.468.316.525 0a3.208 3.208 0 0 1 1.689-2.788 1.775 1.775 0 0 1 2.409 1.342ZM58.038 129.768a2.686 2.686 0 0 1 1.615-2.1 1.476 1.476 0 0 1 1.364.252 1.474 1.474 0 0 1 .55 1.274c-.026.274.411.321.479.063a1.908 1.908 0 0 0-1.952-2.225c-1.393 0-2.289 1.379-2.545 2.6-.068.315.417.457.489.136ZM41.076 95.218a2.685 2.685 0 0 1-2.43.905.17.17 0 0 0-.126.042.212.212 0 0 0-.221.142c-.311.849.6 2.185 1.151 2.761a1.7 1.7 0 0 0 2.541-.079.268.268 0 0 0-.321-.415c-.72.418-.418.365-.494.147a4.719 4.719 0 0 1 0-2.93c.09-.068.172-.143.247-.226.214-.239-.138-.59-.347-.347Zm-.39 3.645a.28.28 0 0 0 .137.152 1.22 1.22 0 0 1-1.178-.578 3.584 3.584 0 0 1-.92-1.851c.64.101 1.295-.02 1.856-.342a4.278 4.278 0 0 0 .105 2.619ZM34.364 88.691c-.962-.768-1.833-.362-1.667.384a1.386 1.386 0 0 0 1.578.957c.841-.113.575-.954.089-1.341ZM37.7 86.424c.243-.2.149-.732-.089-1.052-.314-.422-.984-.6-1.21-.363-.226.237-.037.8.289 1.121.326.321.763.495 1.01.294Z" fill="#111"></path></svg>